<svg width="40" height="40" viewBox="0 0 40 40" fill="none" xmlns="http://www.w3.org/2000/svg">
<mask id="mask0_2001_189" style="mask-type:alpha" maskUnits="userSpaceOnUse" x="0" y="0" width="40" height="40">
<rect width="40" height="40" fill="#D9D9D9"/>
</mask>
<g mask="url(#mask0_2001_189)">
<path d="M24.9996 33.3319C21.2774 33.3319 18.1246 32.0403 15.5413 29.4569C12.9579 26.8736 11.6663 23.7208 11.6663 19.9986C11.6663 16.3042 12.9579 13.1583 15.5413 10.5611C18.1246 7.96389 21.2774 6.66528 24.9996 6.66528C28.694 6.66528 31.8399 7.96389 34.4371 10.5611C37.0343 13.1583 38.3329 16.3042 38.3329 19.9986C38.3329 23.7208 37.0343 26.8736 34.4371 29.4569C31.8399 32.0403 28.694 33.3319 24.9996 33.3319ZM24.9996 29.9986C27.7774 29.9986 30.1385 29.0264 32.0829 27.0819C34.0274 25.1375 34.9996 22.7764 34.9996 19.9986C34.9996 17.2208 34.0274 14.8597 32.0829 12.9153C30.1385 10.9708 27.7774 9.99861 24.9996 9.99861C22.2218 9.99861 19.8607 10.9708 17.9163 12.9153C15.9718 14.8597 14.9996 17.2208 14.9996 19.9986C14.9996 22.7764 15.9718 25.1375 17.9163 27.0819C19.8607 29.0264 22.2218 29.9986 24.9996 29.9986ZM28.7912 26.2069L31.1663 23.8319L26.6663 19.3319V13.3319H23.3329V20.7069L28.7912 26.2069ZM3.33293 14.9986V11.6653H9.99959V14.9986H3.33293ZM1.66626 21.6653V18.3319H9.99959V21.6653H1.66626ZM3.33293 28.3319V24.9986H9.99959V28.3319H3.33293Z" fill="#F4C117"/>
</g>
</svg>
