<svg width="30" height="30" viewBox="0 0 30 30" fill="none" xmlns="http://www.w3.org/2000/svg">
<path d="M15 21.0001L21 15.0001L15 9.00006L12.9 11.1001L15.3 13.5001H9V16.5001H15.3L12.9 18.9001L15 21.0001ZM15 30.0001C12.925 30.0001 10.975 29.6063 9.15 28.8188C7.325 28.0313 5.7375 26.9626 4.3875 25.6126C3.0375 24.2626 1.96875 22.6751 1.18125 20.8501C0.39375 19.0251 0 17.0751 0 15.0001C0 12.9251 0.39375 10.9751 1.18125 9.15006C1.96875 7.32506 3.0375 5.73756 4.3875 4.38756C5.7375 3.03756 7.325 1.96881 9.15 1.18131C10.975 0.393811 12.925 6.10352e-05 15 6.10352e-05C17.075 6.10352e-05 19.025 0.393811 20.85 1.18131C22.675 1.96881 24.2625 3.03756 25.6125 4.38756C26.9625 5.73756 28.0313 7.32506 28.8188 9.15006C29.6063 10.9751 30 12.9251 30 15.0001C30 17.0751 29.6063 19.0251 28.8188 20.8501C28.0313 22.6751 26.9625 24.2626 25.6125 25.6126C24.2625 26.9626 22.675 28.0313 20.85 28.8188C19.025 29.6063 17.075 30.0001 15 30.0001Z" fill="#182336"/>
</svg>
