<svg width="16" height="16" viewBox="0 0 16 16" fill="none" xmlns="http://www.w3.org/2000/svg">
<mask id="mask0_2001_38" style="mask-type:alpha" maskUnits="userSpaceOnUse" x="0" y="0" width="16" height="16">
<rect width="16" height="16" fill="#D9D9D9"/>
</mask>
<g mask="url(#mask0_2001_38)">
<path d="M13.3 14.0547C11.9111 14.0547 10.5389 13.7513 9.18333 13.1446C7.82778 12.5379 6.59444 11.6779 5.48333 10.5646C4.37222 9.45129 3.51389 8.21554 2.90833 6.85734C2.30278 5.49914 2 4.12423 2 2.73263C2 2.53224 2.06667 2.36525 2.2 2.23165C2.33333 2.09806 2.5 2.03126 2.7 2.03126H5.4C5.55556 2.03126 5.69444 2.08414 5.81667 2.1899C5.93889 2.29567 6.01111 2.42091 6.03333 2.56564L6.46667 4.90353C6.48889 5.08165 6.48333 5.23195 6.45 5.35441C6.41667 5.47687 6.35556 5.58263 6.26667 5.67169L4.65 7.30822C4.87222 7.72013 5.13611 8.11813 5.44167 8.50221C5.74722 8.8863 6.08333 9.25646 6.45 9.61271C6.79444 9.95783 7.15556 10.2779 7.53333 10.5729C7.91111 10.8679 8.31111 11.1379 8.73333 11.3828L10.3 9.8131C10.4 9.71291 10.5306 9.63776 10.6917 9.58766C10.8528 9.53757 11.0111 9.52365 11.1667 9.54592L13.4667 10.0135C13.6222 10.058 13.75 10.1387 13.85 10.2556C13.95 10.3725 14 10.5033 14 10.6481V13.3533C14 13.5537 13.9333 13.7207 13.8 13.8543C13.6667 13.9879 13.5 14.0547 13.3 14.0547ZM4.01667 6.03908L5.11667 4.93693L4.83333 3.3672H3.35C3.40556 3.82365 3.48333 4.27452 3.58333 4.71984C3.68333 5.16515 3.82778 5.6049 4.01667 6.03908ZM9.98333 12.0174C10.4167 12.2067 10.8583 12.357 11.3083 12.4683C11.7583 12.5796 12.2111 12.652 12.6667 12.6854V11.2158L11.1 10.8986L9.98333 12.0174Z" fill="white"/>
</g>
</svg>
