<svg width="40" height="40" viewBox="0 0 40 40" fill="none" xmlns="http://www.w3.org/2000/svg">
<mask id="mask0_2001_193" style="mask-type:alpha" maskUnits="userSpaceOnUse" x="0" y="0" width="40" height="40">
<rect width="40" height="40" fill="#D9D9D9"/>
</mask>
<g mask="url(#mask0_2001_193)">
<path d="M10.8333 18.3333L20 3.33325L29.1667 18.3333H10.8333ZM29.1667 36.6666C27.0833 36.6666 25.3125 35.9374 23.8542 34.4791C22.3958 33.0208 21.6667 31.2499 21.6667 29.1666C21.6667 27.0833 22.3958 25.3124 23.8542 23.8541C25.3125 22.3958 27.0833 21.6666 29.1667 21.6666C31.25 21.6666 33.0208 22.3958 34.4792 23.8541C35.9375 25.3124 36.6667 27.0833 36.6667 29.1666C36.6667 31.2499 35.9375 33.0208 34.4792 34.4791C33.0208 35.9374 31.25 36.6666 29.1667 36.6666ZM5 35.8333V22.4999H18.3333V35.8333H5ZM29.1667 33.3333C30.3333 33.3333 31.3194 32.9305 32.125 32.1249C32.9306 31.3194 33.3333 30.3333 33.3333 29.1666C33.3333 27.9999 32.9306 27.0138 32.125 26.2083C31.3194 25.4027 30.3333 24.9999 29.1667 24.9999C28 24.9999 27.0139 25.4027 26.2083 26.2083C25.4028 27.0138 25 27.9999 25 29.1666C25 30.3333 25.4028 31.3194 26.2083 32.1249C27.0139 32.9305 28 33.3333 29.1667 33.3333ZM8.33333 32.4999H15V25.8333H8.33333V32.4999ZM16.75 14.9999H23.25L20 9.74992L16.75 14.9999Z" fill="#F4C117"/>
</g>
</svg>
