<svg width="804" height="56" viewBox="0 0 804 56" fill="none" xmlns="http://www.w3.org/2000/svg">
<g clip-path="url(#clip0_2001_418)">
<path d="M96.9443 14.7302C95.0586 16.0998 93.2611 17.406 91.4133 18.7478C91.0668 18.4552 90.7583 18.2004 90.4554 17.9389C88.6948 16.4169 86.7755 15.163 84.5052 14.5277C81.6961 13.7422 78.8926 13.8479 76.1584 14.8114C73.6098 15.7093 71.6748 17.3871 70.3234 19.7347C68.1201 23.5598 67.7378 27.5851 69.0815 31.744C70.5324 36.2367 73.9418 38.6087 78.3315 39.7569C81.4122 40.5624 84.3934 40.2186 87.1745 38.6043C89.3968 37.3148 90.4609 35.3711 90.4151 32.6875C87.3221 32.6875 84.2492 32.6875 81.0947 32.6875C81.0947 30.4323 81.0947 28.3016 81.0947 26.1643C81.847 25.9441 97.2215 25.8673 98.9653 26.092C98.9653 27.4716 99.0559 28.8724 98.9452 30.2576C98.7675 32.4794 98.2388 34.6356 97.4753 36.7396C96.6973 38.8802 95.4777 40.7182 93.7663 42.208C90.4028 45.1363 86.4938 46.7318 82.0046 46.9654C76.7576 47.238 71.98 45.9118 67.6462 42.9857C63.261 40.0239 60.8398 35.7905 59.9466 30.6937C58.8467 24.412 60.4787 18.7745 64.5006 13.859C67.4439 10.2631 71.3562 8.18036 75.9035 7.39265C83.9608 5.99634 90.8209 8.36728 96.5028 14.1862C96.6302 14.313 96.7319 14.4654 96.9443 14.7302Z" fill="white" fill-opacity="0.5"/>
<path d="M0 8.44839C0.25151 8.42502 0.43148 8.39276 0.611449 8.39276C4.74516 8.405 8.8811 8.34046 13.0115 8.46953C15.0828 8.53406 17.1921 8.7588 19.1986 9.25502C23.3536 10.2831 26.4499 12.8665 28.4587 16.5803C32.2347 23.5596 32.532 30.7337 29.0824 37.9232C26.7081 42.8721 22.6639 45.6513 17.2156 46.4758C14.5909 46.873 11.9618 47.0165 9.3137 46.9964C6.63204 46.9764 3.95039 46.992 1.26985 46.992C0.868549 46.992 0.468368 46.992 0 46.992C0 34.1104 0 21.34 0 8.44839ZM7.67162 39.9726C10.55 40.2508 13.349 40.2541 16.1425 39.6533C18.9762 39.0436 20.9547 37.4292 22.1541 34.8313C23.3793 32.1767 23.7772 29.3696 23.5715 26.4824C23.4016 24.0959 22.8539 21.7906 21.6109 19.709C20.3332 17.5683 18.5402 16.1598 15.9972 15.7114C13.2954 15.2352 10.588 15.3142 7.87283 15.3832C7.8147 15.3843 7.75881 15.4633 7.67162 15.5278C7.67162 23.6409 7.67162 31.7795 7.67162 39.9726Z" fill="white" fill-opacity="0.5"/>
<path d="M59.3061 46.4136C58.1659 46.4136 57.0257 46.4225 55.8856 46.4114C54.9958 46.4025 53.9909 46.6183 53.2497 46.2779C52.5075 45.9363 52.0291 45.0273 51.4333 44.3687C51.2365 44.1506 51.0342 43.937 50.9235 43.8168C49.4737 44.6224 48.1379 45.5135 46.687 46.1366C44.3317 47.1468 41.8949 47.2247 39.3776 46.5516C35.1153 45.4112 32.9255 40.3867 34.3261 36.4915C34.7632 35.2766 35.4093 34.2107 36.3807 33.3685C37.4426 32.4472 38.5481 31.575 39.7028 30.6259C39.3988 30.2287 39.0579 29.8059 38.7426 29.3653C37.8953 28.1815 37.1263 26.9588 36.9809 25.4624C36.6735 22.3137 38.0541 19.8849 40.9101 18.8836C43.7862 17.8756 46.526 18.127 49.1719 19.6502C52.2985 21.4492 52.5164 25.6059 50.4932 27.8288C49.6 28.809 48.5403 29.6402 47.5477 30.5302C47.3029 30.7505 47.0279 30.9374 46.6993 31.1911C47.4974 32.1279 48.2564 33.0236 49.0221 33.9159C49.7912 34.8126 50.5658 35.7049 51.4254 36.7007C52.8384 35.2298 54.1854 33.828 55.5949 32.3604C56.6233 33.4497 57.6104 34.4944 58.6913 35.6404C57.2582 37.1468 55.8654 38.611 54.4123 40.1375C56.0924 42.1702 57.7389 44.164 59.3855 46.1566C59.3575 46.2412 59.3318 46.328 59.3061 46.4136ZM42.5689 33.8992C41.2387 34.8972 40.1611 35.9408 39.4804 37.3404C39.1685 37.9824 38.9628 38.6544 39.1216 39.3776C39.5061 41.1388 41.7071 42.8211 43.5291 42.672C45.3333 42.5251 46.6333 41.4626 47.9021 40.2432C46.0912 38.0903 44.3787 36.052 42.5689 33.8992ZM43.9685 28.5487C44.8191 27.8333 45.5748 27.2926 46.213 26.6384C47.0358 25.7961 47.199 24.7114 46.8044 23.641C46.4333 22.6341 45.5826 22.0801 44.5207 21.9054C43.1513 21.6795 42.0234 22.4984 41.7585 23.8502C41.5853 24.7325 41.6993 25.5491 42.2314 26.279C42.7511 26.9911 43.3033 27.682 43.9685 28.5487Z" fill="white" fill-opacity="0.5"/>
</g>
<g opacity="0.5" clip-path="url(#clip1_2001_418)">
<path d="M223.267 37.7564C213.306 43.1203 202.102 39.0039 197.253 30.5638C199.013 29.6619 200.769 28.7611 202.628 27.8084C204.857 31.2389 207.97 33.3538 211.974 33.9489C213.961 34.2438 216.006 34.206 218.066 33.3689C215.102 29.7494 213.53 25.7054 213.523 21.1073C213.515 16.5016 215.059 12.4436 218.058 8.74411C215.014 7.77092 212.144 7.85193 209.267 8.91261C206.36 9.9841 204.207 11.9402 202.502 14.566C200.7 13.6393 198.947 12.7384 197.197 11.8398C200.754 4.64826 211.978 -1.61325 223.279 4.4344C233.514 -1.09587 244.755 3.44392 249.417 11.7922C247.698 12.7471 245.915 13.5809 244.076 14.5714C241.819 11.0772 238.708 8.83052 234.558 8.19649C232.571 7.89297 230.594 8.02367 228.529 8.74303C231.452 12.4144 233.023 16.4724 233.016 21.1105C233.01 25.7205 231.434 29.7429 228.467 33.41C231.506 34.3486 234.373 34.3183 237.217 33.2836C240.035 32.2585 242.199 30.4007 243.916 27.8116C245.726 28.7319 247.485 29.6263 249.245 30.5217C245.233 38.1236 234.089 43.5092 223.267 37.7564ZM223.272 12.2265C218.029 17.3527 218.823 25.97 223.334 29.9697C228.113 25.3068 228.105 16.7727 223.272 12.2265Z" fill="white"/>
<path d="M234.879 50.3736C234.879 48.0622 234.879 45.7507 234.879 43.3798C235.714 43.3798 236.426 43.3798 237.139 43.3798C237.365 44.1078 237.442 54.0147 237.215 55.7462C236.743 55.7462 236.247 55.7386 235.753 55.7484C235.257 55.7581 235.09 55.3627 234.864 55.0517C233.208 52.778 231.56 50.5 229.908 48.2252C229.548 47.7305 229.179 47.2412 228.74 46.6483C228.425 47.4486 228.605 48.1885 228.572 48.9014C228.537 49.6553 228.56 50.4114 228.559 51.1664C228.558 51.8858 228.559 52.6052 228.559 53.3245C228.559 54.0752 228.559 54.8259 228.559 55.6684C227.744 55.6684 227.006 55.6684 226.268 55.6684C226.051 54.8864 226.01 44.5669 226.241 43.3215C227.184 43.3215 228.153 43.3333 229.121 43.3161C229.623 43.3074 229.787 43.6909 230.011 44.003C231.402 45.9332 232.787 47.8688 234.178 49.799C234.334 50.0172 234.519 50.2159 234.691 50.4233C234.755 50.406 234.817 50.3898 234.879 50.3736Z" fill="white"/>
<path d="M224.125 55.6967C223.092 55.6967 222.235 55.6967 221.254 55.6967C220.896 54.9611 220.506 54.1629 220.1 53.328C217.951 53.328 215.821 53.328 213.633 53.328C213.346 53.9339 213.024 54.5377 212.777 55.1707C212.604 55.6113 212.344 55.782 211.879 55.7647C211.196 55.7399 210.512 55.7582 209.623 55.7582C211.472 51.509 213.313 47.4315 215.148 43.3486C216.301 43.3486 217.386 43.3486 218.573 43.3486C220.391 47.3937 222.218 51.4572 224.125 55.6967ZM216.984 46.1084C216.907 46.1094 216.83 46.1094 216.752 46.1105C216.117 47.6281 215.375 49.1025 214.808 50.7497C216.281 50.7497 217.598 50.7497 219.073 50.7497C218.342 49.1252 217.663 47.6162 216.984 46.1084Z" fill="white"/>
<path d="M241.781 55.5941C241.781 51.5533 241.781 47.5028 241.781 43.3843C244.652 43.3843 247.467 43.3843 250.35 43.3843C250.564 44.1425 250.489 44.9105 250.392 45.8059C248.358 45.8059 246.341 45.8059 244.25 45.8059C244.25 46.6668 244.25 47.4024 244.25 48.2697C246.141 48.2697 248.007 48.2697 249.935 48.2697C249.935 49.1662 249.935 49.9331 249.935 50.7994C248.039 50.7994 246.199 50.7994 244.268 50.7994C244.268 51.657 244.268 52.4174 244.268 53.2729C246.63 53.2729 248.942 53.2729 251.329 53.2729C251.329 54.1035 251.329 54.8423 251.329 55.5768C250.492 55.8176 242.792 55.8371 241.781 55.5941Z" fill="white"/>
<path d="M196.56 43.354C197.302 43.354 197.985 43.354 198.799 43.354C198.937 44.7917 198.786 46.2196 198.901 47.7825C199.962 47.7858 200.962 47.7901 201.962 47.7912C202.976 47.7923 203.99 47.7912 205.12 47.7912C205.357 46.3341 205.108 44.8975 205.283 43.4037C206.033 43.4037 206.769 43.4037 207.583 43.4037C207.583 47.4596 207.583 51.5111 207.583 55.661C206.862 55.661 206.126 55.661 205.251 55.661C205.251 53.9134 205.251 52.1711 205.251 50.3478C203.076 50.3478 201.038 50.3478 198.87 50.3478C198.87 52.129 198.87 53.8766 198.87 55.6891C198.032 55.6891 197.322 55.6891 196.617 55.6891C196.385 54.9157 196.329 44.7625 196.56 43.354Z" fill="white"/>
<path d="M191.947 51.2279C192.546 51.6535 193.152 52.0845 193.745 52.5057C192.842 54.8615 189.981 56.3607 187.321 55.9232C184.396 55.4426 182.135 52.8902 182.007 49.9231C181.875 46.8718 183.887 44.1045 186.779 43.3797C189.959 42.5826 192.82 44.4188 193.819 46.727C193.219 47.1645 192.595 47.6181 191.971 48.0729C190.08 45.4935 187.815 44.9642 185.864 46.579C184.069 48.0653 183.956 50.7689 185.623 52.4128C187.422 54.1896 189.764 53.7738 191.947 51.2279Z" fill="white"/>
<path d="M254.859 43.373C255.689 43.373 256.402 43.373 257.256 43.373C257.256 46.6793 257.256 49.9305 257.256 53.2562C259.567 53.2562 261.736 53.2562 264 53.2562C264 54.0944 264 54.8548 264 55.6844C260.96 55.6844 257.936 55.6844 254.859 55.6844C254.859 51.5626 254.859 47.5153 254.859 43.373Z" fill="white"/>
</g>
<g opacity="0.5" clip-path="url(#clip2_2001_418)">
<path d="M347 46.4839C347.234 45.7284 347.662 45.8237 348.02 45.8021C349.306 45.7273 350.593 45.6683 351.88 45.6002C352.145 45.5866 352.411 45.5787 352.672 45.5401C354.349 45.2905 354.98 44.6088 355.087 42.9322C355.106 42.6304 355.106 42.3276 355.106 42.0247C355.108 31.6645 355.108 21.3032 355.106 10.9431C355.106 10.7536 355.112 10.5642 355.103 10.3759C355.048 9.27669 354.578 8.5938 353.505 8.30114C352.744 8.09468 351.943 8.02662 351.156 7.9336C350.404 7.84512 349.646 7.81903 348.893 7.73168C348.699 7.709 348.519 7.56266 348.215 7.41633C348.455 7.2337 348.577 7.07489 348.726 7.04312C348.981 6.98754 349.252 7.00229 349.517 7.00229C356.263 7.00229 363.009 6.98868 369.755 7.01023C373.187 7.02157 376.551 7.50935 379.783 8.71405C385.404 10.8081 389.196 14.6797 390.932 20.4207C392.604 25.953 392.384 31.424 389.756 36.6387C386.673 42.7598 381.584 45.9757 374.767 46.5122C374.05 46.569 373.327 46.5769 372.609 46.5769C364.574 46.5814 356.54 46.5814 348.505 46.5758C348.036 46.578 347.567 46.5202 347 46.4839ZM361.854 26.8718C361.854 32.5788 361.852 38.2858 361.855 43.9939C361.857 45.3416 361.902 45.4096 363.269 45.3801C366.183 45.3178 369.099 45.2701 372.01 45.1192C375.739 44.9253 378.797 43.3939 380.978 40.3016C381.564 39.4701 382.184 38.6363 382.61 37.7209C385.518 31.4694 385.972 25.0863 383.465 18.5887C381.311 13.0054 377.31 9.67826 371.355 8.69703C368.49 8.22513 365.613 8.38394 362.738 8.37374C362.058 8.37147 361.92 8.57565 361.865 9.29711C361.841 9.59772 361.854 9.90173 361.854 10.2035C361.854 15.7596 361.854 21.3157 361.854 26.8718Z" fill="white"/>
<path d="M417.789 46.9999C416.895 46.8501 415.711 46.7719 414.601 46.4418C411.881 45.633 410.062 43.8361 409.123 41.1431C407.642 36.8927 408.794 32.438 412.108 29.7291C414.55 27.7327 417.396 27.2177 420.436 27.5455C421.367 27.6465 422.311 27.8699 423.187 28.2C426.487 29.441 428.157 31.9945 428.756 35.3465C429.976 42.1743 425.097 46.0164 420.554 46.731C419.734 46.8592 418.901 46.8944 417.789 46.9999ZM424.55 37.8444C424.506 35.2683 424.09 33.282 423.288 31.7449C422.679 30.5777 421.85 29.6123 420.636 29.0406C417.747 27.6828 414.726 28.9203 413.5 31.9956C412.436 34.6659 412.535 37.3907 413.265 40.1177C413.681 41.6729 414.381 43.0874 415.533 44.2422C417.558 46.2716 420.524 46.2807 422.51 44.2037C423.044 43.6444 423.453 42.9298 423.787 42.2231C424.465 40.7915 424.523 39.2306 424.55 37.8444Z" fill="white"/>
<path d="M443.329 46.3411C442.445 46.6157 432.934 46.61 431.968 46.3082C432.274 45.943 432.668 46.0349 433.01 46.0099C435.295 45.8477 435.683 45.4473 435.675 43.1661C435.663 39.6144 435.64 36.0638 435.613 32.5121C435.603 31.2212 435.077 30.8389 433.817 31.1735C433.344 31.2995 432.875 31.4412 432.399 31.5535C432.309 31.5751 432.194 31.4912 431.91 31.3947C432.241 31.1713 432.444 30.9603 432.691 30.8786C434.707 30.2173 436.677 29.4629 438.543 28.4329C439.398 27.961 439.705 28.1879 439.718 29.1657C439.734 30.3273 439.722 31.49 439.722 32.9034C440.028 32.5507 440.191 32.3839 440.33 32.199C440.962 31.3516 441.517 30.4328 442.239 29.6716C442.795 29.0852 443.5 28.5543 444.242 28.2412C446.199 27.4154 448.256 28.9173 447.975 30.8831C447.897 31.4344 447.651 31.8848 447.175 32.1922C446.631 32.5439 446.096 32.528 445.602 32.1253C445.428 31.9835 445.284 31.8031 445.141 31.6273C444.099 30.35 443.755 30.2989 442.458 31.2915C440.679 32.6539 439.61 34.3532 439.689 36.7002C439.767 39.0404 439.709 41.384 439.729 43.7264C439.742 45.2975 440.127 45.7093 441.692 45.9203C442.212 45.9906 442.731 46.0632 443.248 46.1483C443.284 46.1585 443.302 46.2753 443.329 46.3411Z" fill="white"/>
<path d="M394.793 46.182C394.951 46.1276 395.106 46.0402 395.267 46.0255C395.605 45.9937 395.949 46.021 396.287 45.9869C397.827 45.8327 398.308 45.3676 398.32 43.8373C398.348 40.0247 398.342 36.211 398.327 32.3972C398.322 31.2447 397.782 30.8647 396.628 31.1313C396.114 31.2492 395.61 31.4103 395.098 31.5328C395.002 31.5555 394.884 31.4852 394.616 31.4183C394.863 31.2016 395.009 30.9713 395.203 30.918C397.295 30.3497 399.265 29.5069 401.163 28.4632C402.077 27.9607 402.367 28.1853 402.371 29.2698C402.383 33.0835 402.376 36.8961 402.376 40.7099C402.376 41.8045 402.365 42.9003 402.381 43.995C402.4 45.2745 402.714 45.6444 404 45.8973C404.406 45.9779 404.825 45.9824 405.237 46.0357C405.48 46.0675 405.72 46.1242 405.943 46.1673C405.943 46.2887 405.95 46.3284 405.941 46.3635C405.933 46.393 405.907 46.4395 405.887 46.4395C402.412 46.4724 398.935 46.5042 395.458 46.528C395.244 46.5292 395.029 46.4634 394.815 46.4293C394.809 46.3465 394.801 46.2637 394.793 46.182Z" fill="white"/>
<path d="M400.085 21.3303C398.651 21.3269 397.476 20.1597 397.484 18.744C397.492 17.3408 398.703 16.1338 400.098 16.1372C401.519 16.1406 402.664 17.3101 402.663 18.7565C402.661 20.23 401.557 21.3326 400.085 21.3303Z" fill="white"/>
</g>
<g opacity="0.5" clip-path="url(#clip3_2001_418)">
<path d="M550.882 16.8127C551.413 16.3852 551.96 15.9763 552.462 15.5159C552.586 15.4022 552.599 15.1256 552.597 14.9244C552.592 14.1766 552.986 13.7228 553.601 13.3642C553.958 13.1565 554.442 12.8963 554.536 12.565C554.719 11.9199 554.716 11.2059 554.684 10.5248C554.675 10.3203 554.341 10.1038 554.12 9.9409C553.8 9.70473 553.423 9.54182 553.117 9.28926C552.902 9.11104 552.692 8.85957 552.614 8.60153C552.54 8.35662 552.573 8.01986 552.699 7.80229C552.758 7.7006 553.147 7.75855 553.376 7.80119C553.494 7.82306 553.59 7.96738 553.696 8.05704C553.419 8.05704 553.14 8.05704 552.846 8.05704C553.024 8.88909 553.299 9.22147 554.094 9.57572C555.155 10.048 556.263 10.0284 557.392 9.91575C558.681 9.78783 559.981 9.5943 561.241 10.129C561.339 10.1268 561.432 10.1301 561.525 10.1333C561.51 10.106 561.489 10.0535 561.484 10.0546C561.396 10.0863 561.309 10.1235 561.222 10.1596C561.386 9.81079 561.116 9.67631 560.889 9.6118C560.231 9.42593 559.568 9.21819 558.894 9.14493C557.851 9.03122 556.793 9.04981 555.748 8.95687C554.957 8.8869 554.193 8.68572 553.655 8.01877C553.815 7.88757 553.977 7.75636 554.134 7.62735C554.21 7.64375 554.319 7.63609 554.342 7.67655C554.832 8.55233 555.636 8.72508 556.555 8.74804C557.535 8.7721 558.515 8.85847 559.489 8.96453C561.018 9.12963 562.25 9.75284 562.997 11.2015C563.395 11.9724 563.912 12.6874 564.421 13.3948C566.242 15.9271 569.668 15.0666 570.734 12.8438C571.174 11.9264 571.6 11.0015 572.068 10.0983C572.588 9.09355 573.205 8.15544 574.281 7.58033C573.997 7.95098 573.694 8.3107 573.431 8.69556C572.922 9.43795 572.31 10.1355 572.263 11.1042L572.284 11.0878C572.067 11.4158 571.824 11.7296 571.638 12.0751C571.449 12.425 571.32 12.8088 571.155 13.1729C570.576 14.4521 569.791 15.5072 568.24 15.7237C568.543 16.278 568.918 16.0637 569.282 15.9719C570.76 15.5958 572.222 15.0841 573.724 14.8916C575.721 14.6358 577.63 14.0957 579.543 13.5359C580.055 13.3861 580.539 13.1412 581.036 12.9389L581.035 12.9367C580.962 13.9328 580.463 14.65 579.682 15.2623C578.333 16.3185 578.328 16.6268 579.494 17.8306C579.909 18.2592 580.244 18.6605 580.182 19.3372C580.137 19.8293 580.302 20.3399 580.385 20.9215C584.261 20.9215 588.156 20.9215 592.11 20.9215C592.094 20.6558 592.112 20.4448 592.063 20.2491C591.972 19.8719 591.841 19.5034 591.729 19.1306C591.657 18.889 591.613 18.6364 591.516 18.4057C591.153 17.5419 590.71 16.7066 590.423 15.8199C590.193 15.1114 589.839 14.6216 589.123 14.4095C589.635 14.4084 590.148 14.4084 590.688 14.4084C590.637 13.7906 590.324 13.8726 589.994 13.8519C589.447 13.8169 588.905 13.6868 588.361 13.596C588.299 13.6069 588.235 13.6113 588.174 13.6299C588.142 13.6397 588.117 13.6725 588.088 13.6944C588.181 13.6627 588.274 13.6321 588.367 13.6004C588.437 13.7556 588.47 13.9481 588.584 14.0585C588.747 14.217 588.966 14.3165 589.162 14.4412C587.37 14.1328 586.376 13.0329 585.988 11.1764C586.36 10.984 586.742 10.8014 587.11 10.5936C588.026 10.0765 588.951 9.57353 589.836 9.00826C590.167 8.79615 590.429 8.70868 590.829 8.7885C591.813 8.98421 592.169 8.6901 592.188 7.67108C592.209 6.54492 592.163 5.41767 592.146 4.2915L592.124 4.31556C592.193 5.24819 592.425 6.20379 592.296 7.108C592.1 8.48782 592.728 9.30566 593.743 10.0087C594.035 10.211 594.3 10.4548 594.576 10.68C593.921 10.3476 593.265 10.0163 592.48 9.61836C592.647 10.2383 592.792 10.774 592.953 11.3677C593.475 11.2682 593.939 11.2015 594.387 11.0758C594.472 11.0518 594.492 10.7937 594.541 10.6428C595.095 10.7489 595.648 10.856 596.316 10.9851C595.106 11.2453 593.956 11.4935 592.87 11.7275C592.687 12.2599 592.527 12.6973 592.387 13.1423C592.001 14.3592 592.362 15.5105 592.697 16.6673C592.837 17.1483 592.972 17.6414 593.016 18.1378C593.105 19.1448 593.244 20.0906 594.241 20.6613C594.414 20.7608 594.478 21.0538 594.659 21.3775C594.207 21.4114 593.897 21.4562 593.585 21.4551C588.027 21.4332 582.468 21.4059 576.909 21.372C576.873 21.372 576.838 21.2648 576.707 21.0538C577.717 21.0166 578.647 20.9828 579.604 20.9478C579.244 20.1616 579.244 20.1616 579.648 19.6171C579.549 18.0875 578.26 17.5015 577.159 16.5907C577.48 16.2179 577.743 15.9063 578.013 15.599C578.29 15.282 578.573 14.9704 578.853 14.6566C579.234 14.4641 579.609 14.264 579.815 13.8956C579.754 13.8311 579.693 13.7677 579.632 13.7032C579.345 13.9918 579.059 14.2815 578.772 14.5702C578.124 15.1333 577.393 15.6253 576.846 16.2726C575.584 17.7639 575.118 19.4302 576.172 21.2637C575.355 21.4977 570.819 21.5469 569.576 21.3468C569.672 20.8734 570.058 21.0035 570.343 21.0002C571.608 20.9849 572.873 20.9937 574.164 20.9937C574.254 20.5104 574.331 20.0949 574.408 19.6806L574.482 19.6106C574.526 19.8806 574.586 20.1496 574.611 20.4208C574.649 20.8362 574.857 20.9849 575.284 20.9084C575.301 20.7881 575.365 20.6438 575.322 20.5979C574.673 19.8916 574.984 19.1011 575.117 18.3335C575.252 17.5463 575.379 16.7547 575.581 15.9839C575.676 15.622 575.938 15.3049 576.163 14.8982C575.228 14.9255 574.337 15.1059 573.607 15.6974C573.334 15.9183 573.179 16.3469 573.08 16.7099C572.864 17.5135 572.273 17.8623 571.675 17.343C571.023 16.7744 570.519 16.9428 569.939 17.3047C570.003 17.8426 570.117 18.339 570.113 18.8343C570.101 20.3322 568.948 21.5393 567.467 21.6563C565.912 21.7798 564.593 20.7641 564.316 19.2531C564.248 18.8813 564.108 18.5216 563.999 18.1553C564.117 18.0219 564.237 17.8896 564.427 17.6808C563.766 17.6196 563.832 17.8656 564.026 18.1805C563.753 18.1247 563.481 18.0689 563.104 17.9924C563.527 17.3539 564.263 17.4578 564.705 17.0762C565.162 16.6793 565.598 16.2562 566.166 15.7313C565.461 15.7838 564.875 15.8276 564.312 15.8702C564.236 15.8068 564.164 15.7718 564.13 15.7149C563.3 14.3526 563.735 14.5286 562.134 14.6281C560.225 14.7473 558.39 14.4149 556.572 13.8398C555.834 13.6069 555.005 13.5206 554.233 13.5774C553.319 13.6452 553.018 14.1449 553.107 15.0053C554.799 14.8075 556.225 15.3268 557.378 16.5863L557.415 16.5568C557.416 16.6465 557.416 16.7372 557.417 16.8269L557.38 16.7853C557.539 16.8662 557.698 16.9482 557.857 17.0292L557.83 16.9985C557.442 17.2282 557.53 17.5594 557.567 17.9334C557.766 19.92 556.224 21.6114 554.268 21.5939C552.46 21.5775 551.006 20.1376 551.005 18.3237C551.005 17.8732 551.132 17.425 551.166 16.9723C551.171 16.9154 550.961 16.8433 550.85 16.7788C550.849 16.7799 550.882 16.8127 550.882 16.8127ZM555.87 17.004C556.083 17.0795 556.296 17.156 556.509 17.2314C555.999 17.3517 555.489 17.472 554.984 17.5977C554.98 17.6196 554.976 17.6414 554.971 17.6633C554.962 17.6447 554.953 17.6261 554.944 17.6075C554.963 17.613 554.983 17.6185 555.003 17.6229C555.169 17.8098 555.334 17.9957 555.5 18.1827C555.125 18.3554 555.319 18.5763 555.447 18.7917C555.109 18.7403 555.033 18.96 555.001 19.2246C554.279 19.0858 554.644 19.6292 554.579 19.8992C554.463 19.6991 554.348 19.4991 554.223 19.2826C554.103 19.3515 553.98 19.4203 553.859 19.4903C553.726 19.3285 553.592 19.1656 553.458 19.0038C553.465 18.7064 553.336 18.5424 553.021 18.5664C553.148 18.4538 553.273 18.3423 553.403 18.2264C553.265 18.105 553.138 17.9946 553.012 17.8831C553.176 17.871 553.34 17.859 553.504 17.847C553.516 17.7934 553.527 17.7409 553.539 17.6874C553.334 17.6108 553.127 17.5343 552.821 17.4217C552.937 17.6775 552.991 17.7967 553.045 17.9159C552.611 17.8142 552.177 17.7125 551.722 17.6065C551.436 18.1116 551.38 18.4964 551.959 18.7457C551.558 19.4575 551.641 19.6674 552.392 19.8468C552.252 20.4579 552.633 20.6537 553.183 20.8023C553.422 20.3486 553.659 19.8981 553.897 19.4455C553.776 19.9255 553.655 20.4055 553.505 20.9992C553.873 21.0571 554.165 21.1019 554.551 21.1621C554.551 20.6515 554.551 20.2579 554.551 19.8642C554.677 20.2229 554.805 20.5815 554.944 20.974C555.552 20.9073 555.977 20.7553 555.859 20.0545C556.449 20.3322 556.609 19.9528 556.749 19.4663C556.521 19.2946 556.303 19.1306 556.084 18.9655C556.357 18.9655 556.632 18.9655 556.935 18.9655C556.935 18.6637 556.935 18.4046 556.935 18.0689C556.393 18.1127 555.934 18.1499 555.483 18.1837C555.966 18.0241 556.448 17.8656 557.101 17.6502C556.793 17.4523 556.638 17.3517 556.484 17.2522C556.837 16.6465 556.385 16.7974 556.074 16.816C555.941 16.4267 555.608 16.2988 555.301 16.4508C555.084 16.559 554.979 16.8936 554.823 17.1265C554.876 17.1757 554.931 17.226 554.984 17.2752C555.279 17.1866 555.574 17.0959 555.87 17.004ZM568.1 17.2249C568.417 17.5496 568.706 17.5288 568.971 17.1669C568.822 16.7033 568.565 16.8958 568.316 17.0401C568.027 16.29 567.623 16.8728 567.207 16.8597C567.235 17.1855 567.254 17.4184 567.293 17.8787C567.653 17.5868 567.876 17.4053 568.1 17.2249ZM566.385 17.6874C565.523 16.9701 565.26 17.0204 565.085 17.9957C565.545 17.9749 566.061 18.3193 566.352 17.6535C566.542 17.7256 566.732 17.7978 567 17.8995C567 17.5419 567 17.2697 567 16.9155C566.686 16.9865 566.436 17.0434 566.166 17.1057C566.258 17.3517 566.321 17.519 566.385 17.6874ZM565.559 19.3821C565.406 19.5231 565.254 19.6642 565.107 19.7986C565.563 20.5815 565.563 20.5815 566.144 20.2743C566.129 20.4536 566.113 20.634 566.09 20.9062C566.422 20.9992 566.75 21.0899 567.194 21.2135C567.222 20.693 567.285 20.2972 567.253 19.9102C567.212 19.4061 566.885 19.4859 566.557 19.651C566.621 19.3854 566.677 19.1175 566.244 19.2148C566.002 19.2684 565.767 19.3438 565.527 19.4094C565.822 19.2006 566.117 18.9906 566.639 18.62C565.876 18.48 565.391 18.3904 564.791 18.2811C564.825 18.7665 564.846 19.0694 564.871 19.4346C565.155 19.4127 565.358 19.3963 565.559 19.3821ZM568.525 20.2874C568.714 20.2775 568.958 20.3409 569.082 20.2458C569.533 19.9003 569.384 19.4772 569.144 19.0683L569.13 19.0803C569.282 19.0716 569.563 19.0748 569.565 19.0508C569.595 18.7512 569.585 18.4462 569.585 18.0624C569.199 18.1017 568.925 18.1302 568.656 18.1564C568.871 18.0055 569.085 17.8546 569.438 17.6075C568.265 17.7267 568.265 17.7267 567.818 18.2909C568.152 18.2308 568.42 18.1837 568.688 18.1356C568.261 18.3642 567.852 18.6594 567.9 19.1842C567.93 19.5023 568.18 19.8008 568.33 20.1081C568.079 19.8817 567.828 19.6554 567.472 19.334C567.472 20.0282 567.472 20.5552 567.472 21.2025C567.992 20.9335 568.67 21.1019 568.525 20.2874ZM590.897 14.6445C590.79 14.673 590.683 14.7014 590.576 14.7287C590.72 15.1989 590.848 15.6745 591.011 16.1381C591.531 17.6032 592.071 19.0617 592.59 20.5279C592.723 20.9051 592.922 21.0768 593.249 20.9346C592.462 18.8332 591.68 16.7394 590.897 14.6445ZM570.724 16.1304C571.269 16.8783 571.866 16.8291 572.474 16.6017C572.954 16.4223 572.959 16.0003 573.005 15.4919C572.201 15.716 571.511 15.9096 570.724 16.1304ZM554.734 13.0657C555.422 13.198 556.033 13.3161 556.794 13.4626C556.2 12.8973 555.727 12.4469 555.195 11.9418C555.025 12.3561 554.895 12.6732 554.734 13.0657ZM553.898 15.8647C554.301 16.2529 554.638 16.254 555.066 15.9063C554.655 15.4175 554.319 15.3815 553.898 15.8647ZM552.96 17.2271C552.988 17.1724 553.017 17.1177 553.045 17.0631C552.808 16.9067 552.585 16.6694 552.33 16.6246C552.193 16.6006 551.999 16.9089 551.66 17.2271C552.284 17.2271 552.621 17.2271 552.96 17.2271ZM553.854 17.4359C553.82 16.3524 553.798 16.3392 552.972 16.7657C553.237 16.9668 553.472 17.1451 553.854 17.4359ZM554.871 16.4781C554.045 16.4956 554.045 16.4956 554.381 17.3102C554.544 17.0346 554.669 16.8214 554.871 16.4781ZM570.271 16.7963C570.271 16.7372 570.276 16.6334 570.27 16.6323C570.007 16.6038 569.743 16.5842 569.398 16.5579C569.661 17.1593 569.961 17.0084 570.271 16.7963ZM566.819 16.5197C566.807 16.4573 566.794 16.395 566.781 16.3327C566.577 16.4059 566.373 16.4792 566.169 16.5525C566.184 16.5973 566.2 16.6421 566.216 16.6869C566.418 16.6312 566.618 16.5754 566.819 16.5197ZM553.185 16.1567C553.178 16.1009 553.172 16.0451 553.165 15.9883C553.031 16.0014 552.896 16.0134 552.762 16.0353C552.758 16.0364 552.772 16.1501 552.778 16.2113C552.913 16.1938 553.048 16.1752 553.185 16.1567ZM555.911 16.1545C555.713 16.0036 555.65 15.9183 555.605 15.9281C555.504 15.95 555.412 16.0167 555.317 16.0659C555.464 16.0867 555.609 16.1085 555.911 16.1545Z" fill="white"/>
<path d="M579.39 28.9643C578.783 28.9249 578.28 28.891 577.686 28.8527C577.686 28.2372 577.686 27.6479 577.686 26.9776C579.321 26.9776 580.94 26.9776 582.673 26.9776C583.768 29.6356 584.884 32.3449 586.079 35.2467C587.278 32.334 588.39 29.6279 589.494 26.9448C591.191 26.9448 592.783 26.9448 594.459 26.9448C594.459 27.5801 594.459 28.1716 594.459 28.8298C593.913 28.879 593.384 28.9271 592.783 28.9818C592.783 32.2815 592.783 35.5408 592.783 38.8876C593.322 38.9313 593.85 38.974 594.458 39.0232C594.458 39.6464 594.458 40.2412 594.458 40.9016C592.639 40.9016 590.835 40.9016 588.954 40.9016C588.954 40.298 588.954 39.7339 588.954 39.0461C589.453 38.998 589.977 38.9477 590.567 38.8909C590.567 35.8688 590.567 32.8566 590.567 29.8455C590.521 29.8236 590.474 29.8029 590.428 29.781C589.167 32.8052 587.907 35.8295 586.637 38.8745C586.245 38.8745 585.896 38.8745 585.506 38.8745C584.231 35.8 582.97 32.7571 581.709 29.7154C581.654 29.7285 581.598 29.7416 581.543 29.7559C581.543 32.779 581.543 35.801 581.543 38.8953C582.075 38.9346 582.571 38.9718 583.159 39.0155C583.159 39.6355 583.159 40.2259 583.159 40.8939C581.347 40.8939 579.548 40.8939 577.669 40.8939C577.669 40.2948 577.669 39.7306 577.669 39.0647C577.923 39.0319 578.196 38.9882 578.47 38.962C578.756 38.9346 579.043 38.9226 579.39 38.9007C579.39 35.5944 579.39 32.3307 579.39 28.9643Z" fill="white"/>
<path d="M539.314 40.8871C539.314 40.2661 539.314 39.6932 539.314 39.0503C539.861 38.9934 540.386 38.9398 540.962 38.8797C540.962 37.3873 540.962 35.9407 540.962 34.4931C540.21 34.2471 535.98 34.2056 534.733 34.4581C534.733 35.6608 534.728 36.8909 534.736 38.1198C534.737 38.3658 534.786 38.6118 534.817 38.8972C535.359 38.9409 535.856 38.9825 536.429 39.0284C536.429 39.6658 536.429 40.2584 536.429 40.9112C534.605 40.9112 532.836 40.9112 531.004 40.9112C531.004 40.2923 531.004 39.7249 531.004 39.0492C531.519 38.9989 532.042 38.9475 532.63 38.8895C532.63 35.6029 532.63 32.3403 532.63 28.9826C532.101 28.9367 531.576 28.8918 530.999 28.8426C530.999 28.2238 530.999 27.6531 530.999 27.0845C531.78 26.8527 535.294 26.8188 536.442 27.043C536.442 27.5951 536.442 28.1626 536.442 28.8284C535.918 28.8787 535.394 28.929 534.805 28.9859C534.805 30.0672 534.805 31.1037 534.805 32.1413C535.555 32.3687 539.13 32.4354 540.957 32.2408C541.07 31.1923 541.012 30.1241 540.992 28.9826C540.424 28.9367 539.927 28.8962 539.348 28.8492C539.348 28.2402 539.348 27.6465 539.348 26.9763C541.128 26.9763 542.895 26.9763 544.76 26.9763C544.76 27.5558 544.76 28.1494 544.76 28.8241C544.242 28.8765 543.719 28.9301 543.13 28.9902C543.13 32.2977 543.13 35.5559 543.13 38.8983C543.651 38.9365 544.148 38.9726 544.742 39.0153C544.742 39.6188 544.742 40.2114 544.742 40.8882C542.956 40.8871 541.161 40.8871 539.314 40.8871Z" fill="white"/>
<path d="M563.678 38.8994C563.678 35.5953 563.678 32.3283 563.678 28.9706C563.138 28.9225 562.613 28.8766 562.034 28.8252C562.034 28.2052 562.034 27.6356 562.034 26.9807C562.313 26.9511 562.59 26.8965 562.867 26.8954C565.124 26.8888 567.381 26.8855 569.638 26.8987C570.073 26.9009 570.511 26.9468 570.939 27.0189C572.537 27.289 573.561 28.2829 573.912 29.819C574.175 30.9769 573.714 32.8225 572.373 33.4982C572.281 33.5441 572.211 33.6349 572.095 33.7365C573.213 34.4888 573.598 35.5592 573.548 36.8406C573.521 37.5229 573.544 38.2062 573.544 38.9235C574.184 38.9694 574.685 39.0044 575.258 39.0459C575.258 39.6779 575.258 40.2716 575.258 40.9265C574.036 40.9265 572.852 40.9265 571.566 40.9265C571.524 39.6035 571.414 38.3341 571.456 37.0702C571.53 34.8179 570.465 34.4374 568.844 34.5183C567.87 34.5675 566.89 34.527 565.834 34.527C565.834 36.014 565.834 37.4135 565.834 38.9038C566.341 38.9486 566.833 38.9912 567.399 39.0415C567.399 39.6691 567.399 40.265 567.399 40.9276C565.609 40.9276 563.844 40.9276 562.025 40.9276C562.025 40.2912 562.025 39.7205 562.025 39.0831C562.573 39.0219 563.1 38.9628 563.678 38.8994ZM565.805 32.571C567.328 32.571 568.74 32.6027 570.152 32.5612C571.276 32.5273 572.054 31.7291 572.048 30.7276C572.042 29.6561 571.37 28.9728 570.156 28.9192C568.96 28.8667 567.76 28.8941 566.563 28.9017C566.323 28.9028 566.082 28.9728 565.805 29.0154C565.805 30.1875 565.805 31.3005 565.805 32.571Z" fill="white"/>
<path d="M601.156 38.9107C602.95 38.9107 604.682 38.9107 606.541 38.9107C606.541 38.0524 606.541 37.2334 606.541 36.3434C607.231 36.3434 607.798 36.3434 608.378 36.3434C608.615 37.0268 608.675 39.3906 608.471 40.8929C604.752 40.8929 601.021 40.8929 597.225 40.8929C597.225 40.2938 597.225 39.7274 597.225 39.0331C597.766 38.9905 598.322 38.9456 598.936 38.8964C598.936 35.5759 598.936 32.3155 598.936 28.9786C598.365 28.9326 597.833 28.89 597.231 28.8419C597.231 28.2198 597.231 27.6239 597.231 26.9624C600.972 26.9624 604.669 26.9624 608.484 26.9624C608.6 28.2165 608.548 29.4618 608.513 30.7629C607.863 30.7629 607.3 30.7629 606.669 30.7629C606.622 30.1561 606.579 29.5908 606.531 28.972C604.72 28.972 602.955 28.972 601.132 28.972C601.132 30.0774 601.132 31.1172 601.132 32.2685C602.638 32.2685 604.113 32.2685 605.683 32.2685C605.683 32.965 605.683 33.5532 605.683 34.2529C604.192 34.2529 602.714 34.2529 601.157 34.2529C601.156 35.8317 601.156 37.3034 601.156 38.9107Z" fill="white"/>
<path d="M547.539 40.8241C547.539 40.2698 547.539 39.7012 547.539 39.0365C548.098 38.9927 548.627 38.9523 549.314 38.8987C549.33 35.6274 549.318 32.3691 549.321 28.9863C548.714 28.9371 548.159 28.8933 547.543 28.8441C547.543 28.2198 547.543 27.6535 547.543 27.0937C548.306 26.8597 557.218 26.7875 558.811 27.0062C558.811 28.2089 558.811 29.4269 558.811 30.7324C558.255 30.7324 557.694 30.7324 557 30.7324C556.969 30.2185 556.935 29.6554 556.893 28.9491C555.086 28.8704 553.295 28.9076 551.433 28.9272C551.433 30.0785 551.433 31.114 551.433 32.2904C552.973 32.2904 554.477 32.2904 556.036 32.2904C556.036 32.9945 556.036 33.5598 556.036 34.2607C554.511 34.2607 553.005 34.2607 551.431 34.2607C551.431 35.8679 551.431 37.3428 551.431 38.8899C553.242 38.8899 555.003 38.8899 556.896 38.8899C556.896 38.0207 556.896 37.2018 556.896 36.3282C557.595 36.3282 558.164 36.3282 558.878 36.3282C558.948 37.8042 558.903 39.2803 558.903 40.7388C558.114 41.0154 548.835 41.0821 547.539 40.8241Z" fill="white"/>
<path d="M614.028 40.1382C613.932 40.428 613.865 40.6281 613.776 40.9003C613.23 40.9003 612.67 40.9003 612.045 40.9003C612.045 39.3007 612.045 37.7481 612.045 36.1059C612.599 36.1059 613.157 36.1059 613.785 36.1059C613.855 36.3486 613.926 36.6253 614.014 36.8975C614.468 38.3123 615.399 39.1651 616.898 39.374C617.818 39.5019 618.714 39.4713 619.579 39.1083C620.47 38.7333 620.952 38.0598 620.986 37.0856C621.021 36.0808 620.487 35.4105 619.617 35.053C618.984 34.7939 618.292 34.6802 617.622 34.5162C616.704 34.2909 615.759 34.151 614.869 33.8492C613.151 33.2665 612.303 32.0933 612.284 30.4543C612.267 28.905 613.199 27.5974 614.813 26.9796C616.722 26.2493 618.527 26.5226 620.254 27.6728C620.354 27.4192 620.442 27.1983 620.54 26.949C621.087 26.949 621.617 26.949 622.215 26.949C622.215 28.2917 622.215 29.5829 622.215 30.9442C621.614 30.9442 621.047 30.9442 620.413 30.9442C620.144 30.0345 619.605 29.2932 618.698 28.8613C617.915 28.4885 617.092 28.3595 616.253 28.5519C615.841 28.647 615.409 28.8219 615.081 29.0811C614.043 29.9044 614.146 31.2722 615.34 31.8484C616.077 32.2048 616.929 32.3251 617.733 32.5405C618.748 32.8116 619.805 32.9745 620.773 33.3594C622.18 33.9192 622.888 35.0454 622.985 36.5837C623.093 38.2937 622.6 39.6976 621.053 40.5581C619.103 41.6427 617.092 41.6416 615.077 40.721C614.749 40.5712 614.444 40.3711 614.028 40.1382Z" fill="white"/>
<path d="M601.568 21.8277C601.583 22.1601 601.595 22.3952 601.609 22.709C584.491 22.709 567.439 22.709 550.315 22.709C550.285 22.4761 550.255 22.241 550.203 21.8408C552.668 21.7763 555.068 22.0759 557.478 21.8726C559.936 21.6648 562.446 21.6265 564.894 21.8835C567.34 22.1393 569.734 21.7042 572.157 21.8059C574.591 21.9086 577.034 21.8288 579.472 21.8288C581.911 21.8288 584.35 21.8288 586.788 21.8288C589.264 21.8288 591.738 21.8288 594.213 21.8288C596.644 21.8277 599.075 21.8277 601.568 21.8277Z" fill="white"/>
<path d="M593.437 3.2561C593.295 3.25063 593.153 3.24516 593.011 3.2397L593.027 3.25282C592.899 2.9751 592.925 2.56291 592.452 2.58915C592.037 2.61211 591.894 2.86795 591.907 3.24844L591.937 3.23423C591.548 2.88436 591.119 2.96636 590.652 3.06257C590.591 3.78091 590.718 4.36586 591.278 4.79664L591.252 4.77259C591.32 5.0831 591.368 5.39909 591.46 5.70195C591.686 6.43996 591.812 7.17689 591.564 7.96192C590.985 8.12265 590.589 7.75528 590.185 7.49068C589.342 6.94072 588.497 6.38748 587.717 5.75661C587.494 5.57621 587.364 5.10716 587.408 4.80211C587.57 3.65408 587.635 2.45904 588.495 1.53187C588.608 1.40832 588.632 1.20167 588.698 1.0333L588.675 1.05626C588.775 0.805876 588.876 0.554403 588.934 0.41008C589.372 0.313864 589.845 0.240609 590.298 0.101752C590.79 -0.0491318 591.344 -0.0688123 591.621 0.30621C592.079 0.925053 592.705 1.10874 593.354 1.33616C593.607 1.42472 593.826 1.61496 594.156 1.81833C593.691 2.27645 593.168 2.62523 593.425 3.28999L593.437 3.2561ZM593.155 2.27863C593.137 2.23927 593.126 2.1846 593.11 2.18242C593.047 2.17476 592.981 2.1846 592.917 2.18898C592.928 2.21959 592.935 2.27317 592.951 2.27535C593.016 2.2841 593.084 2.27863 593.155 2.27863ZM591.019 0.749022C590.966 0.722781 590.912 0.697634 590.859 0.671393C590.838 0.726061 590.788 0.793849 590.804 0.831024C590.826 0.879131 590.902 0.902092 590.956 0.935986C590.978 0.873665 590.998 0.811343 591.019 0.749022Z" fill="white"/>
<path d="M573.128 12.6491C573.728 12.8077 574.29 13.3128 575.047 12.8197C574.964 10.5247 575.589 8.57419 577.939 7.52565C579.233 6.94836 580.48 6.80185 581.909 7.34525C581.707 7.61968 581.576 7.82086 581.422 8.00236C580.395 9.20943 579.658 10.5761 579.148 12.0729C578.704 13.3729 578.659 13.4003 577.078 13.4801C577.039 13.1718 577.001 12.8602 576.961 12.5234C576.05 12.5639 576.54 13.2855 576.325 13.7294C575.897 13.8125 575.401 14.3745 575.047 13.4921C575.002 13.3795 574.674 13.3576 574.473 13.3358C573.935 13.2756 573.382 13.2614 573.135 12.6437C573.134 12.6437 573.128 12.6491 573.128 12.6491ZM577.386 8.8016C577.257 8.82129 577.064 8.79286 577.008 8.8683C576.241 9.87966 576.192 11.0233 576.292 12.3102C576.908 11.8805 576.921 11.8794 576.896 11.3141C576.858 10.4329 576.868 9.56368 577.351 8.77536C577.341 8.76224 577.33 8.74803 577.32 8.73491C577.342 8.75787 577.364 8.77974 577.386 8.8016Z" fill="white"/>
<path d="M575.649 45.9801C576.534 45.9801 577.436 45.9135 578.325 45.9976C579.304 46.0906 580.048 46.6263 580.289 47.6257C580.526 48.6086 580.187 49.4144 579.327 49.9775C579.267 50.0168 579.218 50.0715 579.205 50.0835C580.069 51.319 580.93 52.5491 581.836 53.8458C580.926 54.1038 580.392 53.9507 579.976 53.2149C579.549 52.4616 579.008 51.7662 578.464 51.0872C578.053 50.5755 577.501 50.3219 576.717 50.6018C576.717 51.6481 576.717 52.7251 576.717 53.8764C576.313 53.9158 576.006 53.9464 575.74 53.9726C575.447 53.6315 575.404 47.3217 575.649 45.9801ZM576.763 49.4035C577.63 49.4035 578.427 49.5631 578.927 48.7901C579.198 48.3713 579.203 47.8553 578.897 47.4584C578.346 46.7444 577.568 46.9161 576.762 47.0123C576.763 47.7908 576.763 48.5331 576.763 49.4035Z" fill="white"/>
<path d="M572.924 53.9259C572.417 53.9259 572.062 53.9259 571.663 53.9259C571.318 53.1518 570.981 52.3941 570.633 51.6134C569.516 51.6134 568.429 51.6134 567.217 51.6134C566.886 52.3427 566.532 53.1234 566.178 53.904C565.788 53.904 565.443 53.904 564.984 53.904C565.406 52.9134 565.785 52.0136 566.173 51.1181C566.852 49.5492 567.525 47.9769 568.233 46.4211C568.334 46.2002 568.607 45.9367 568.819 45.9203C569.027 45.9039 569.368 46.1237 569.463 46.327C570.614 48.7969 571.728 51.2843 572.924 53.9259ZM568.852 47.3963C568.418 48.5181 568.06 49.4442 567.668 50.4556C568.525 50.4556 569.259 50.4556 570.123 50.4556C569.699 49.4398 569.318 48.5214 568.852 47.3963Z" fill="white"/>
<path d="M559.813 50.5646C559.813 51.7225 559.813 52.7688 559.813 53.8895C559.442 53.9168 559.138 53.9398 558.75 53.9682C558.75 51.2709 558.75 48.6457 558.75 45.9736C559.847 45.9736 560.898 45.8872 561.928 45.9954C563.146 46.1234 563.825 46.9488 563.88 48.1056C563.933 49.2449 563.304 50.0999 562.094 50.359C561.4 50.5088 560.669 50.4946 559.813 50.5646ZM559.877 49.3838C560.534 49.3838 561.111 49.4428 561.67 49.3684C562.314 49.2832 562.672 48.7791 562.661 48.1504C562.65 47.5108 562.28 47.0636 561.608 47.0002C561.051 46.9477 560.484 46.9893 559.878 46.9893C559.877 47.8279 559.877 48.5364 559.877 49.3838Z" fill="white"/>
<path d="M579.298 13.0656C579.572 12.2543 579.695 11.6464 579.97 11.1183C580.472 10.155 581.05 9.22895 581.622 8.30396C582.002 7.69059 582.531 7.39538 583.287 7.62827C583.659 7.74307 584.057 7.77368 584.35 7.82617C584.542 8.93593 584.72 9.9615 584.916 11.0888C583.26 11.8902 581.427 12.4423 579.298 13.0656Z" fill="white"/>
<path d="M594.34 47.4442C593.783 47.2452 593.324 47.0167 592.841 46.9292C592.465 46.8603 592.034 46.8898 591.671 47.009C590.974 47.2386 590.825 47.9515 591.354 48.4763C591.632 48.7518 591.999 48.9399 592.334 49.1531C592.855 49.4822 593.421 49.7512 593.901 50.1316C594.702 50.768 594.949 51.7017 594.639 52.5676C594.323 53.4544 593.578 53.9857 592.542 53.9978C592.039 54.0032 591.503 54.012 591.039 53.8513C590.058 53.5112 589.75 53.4598 590.015 52.1172C590.3 52.2943 590.538 52.5141 590.817 52.6015C591.359 52.7699 591.92 52.9383 592.481 52.9678C592.968 52.9941 593.4 52.724 593.551 52.1992C593.691 51.7148 593.448 51.3387 593.093 51.061C592.723 50.7713 592.307 50.5416 591.915 50.2814C591.462 49.9808 590.968 49.7249 590.57 49.3641C589.439 48.3374 589.743 46.6679 591.15 46.0731C591.915 45.7505 592.713 45.7637 593.502 45.967C594.381 46.1923 594.456 46.3388 594.34 47.4442Z" fill="white"/>
<path d="M599.37 9.98797C599.251 9.47081 599.13 8.95255 599.023 8.48787C599.587 8.2036 600.085 7.95213 600.748 7.61865C601.001 7.86029 601.339 8.18501 601.58 8.41571C601.222 9.23573 600.942 9.88082 600.726 10.3761C601.044 11.2038 601.309 11.9035 601.581 12.6011C601.79 13.1379 601.735 13.6387 601.238 13.9536C600.712 14.2871 600.776 14.7157 600.897 15.1913C601.038 15.7445 601.181 16.2967 601.328 16.8674C600.886 17.003 600.549 17.1068 600.212 17.2107L600.238 17.2446C600.072 16.2814 599.906 15.3192 599.704 14.1438C599.478 14.5517 599.333 14.813 599.17 15.1049C598.858 14.7025 598.521 14.3833 598.023 14.8239L598.055 14.8414C597.978 13.6114 598.106 12.4174 598.714 11.3197C598.805 11.1568 598.993 11.0485 599.135 10.914L599.112 10.89C600.031 10.8878 600.147 10.7686 600.418 9.56046C600.243 9.30243 600.067 9.03565 599.872 8.78199C599.862 8.76996 599.697 8.87602 599.606 8.92741L599.582 8.93178C599.087 9.20512 599.286 9.63372 599.335 10.0295L599.37 9.98797ZM598.324 14.3275C598.811 14.2947 599.045 14.2783 599.386 14.2554C598.887 13.7437 598.887 13.7437 598.324 14.3275Z" fill="white"/>
<path d="M588.696 1.03312C588.129 0.937993 587.951 1.37643 587.727 1.74599C586.895 3.11159 586.97 4.58872 587.181 6.15332C588.386 6.46931 588.936 7.57579 589.88 8.38378C588.757 9.42247 587.459 10.0074 586.029 10.6875C586.029 9.59304 585.998 8.6604 586.05 7.73214C586.063 7.48394 586.28 7.19748 586.482 7.02036C586.978 6.58629 587.008 5.98604 586.822 5.51589C586.309 4.21152 586.665 3.00007 587.001 1.76348C587.06 1.54699 587.09 1.32286 587.152 1.00469C587.583 1.05061 588.121 0.652626 588.672 1.05608L588.696 1.03312Z" fill="white"/>
<path d="M586.042 53.9619C585.674 53.9412 585.365 53.9248 585.006 53.904C585.006 51.2417 585.006 48.6471 585.006 45.9793C585.353 45.9553 585.659 45.9334 585.898 45.917C586.227 46.1903 586.298 52.2486 586.042 53.9619Z" fill="white"/>
<path d="M581.037 12.9377C582.096 12.5856 583.157 12.238 584.214 11.8804C584.553 11.7656 584.883 11.6268 585.25 11.4868C585.767 12.1844 586.257 12.8448 586.811 13.5915C585.944 13.8649 585.135 14.0114 584.277 13.7785C583.2 13.4855 582.116 13.2154 581.035 12.9344C581.034 12.9366 581.037 12.9377 581.037 12.9377Z" fill="white"/>
<path d="M598.925 21.1675C597.755 21.5338 596.024 21.5622 595.008 21.162C595.328 21.0833 595.501 21.0112 595.679 21.0024C596.075 20.9827 596.473 21.0002 596.869 20.9948C598.061 20.9762 598.25 20.7039 597.895 19.5286C597.73 18.983 597.564 18.4374 597.398 17.8918L597.37 17.9082C597.636 17.9213 597.827 17.8809 597.935 17.566C598.133 16.9931 598.397 16.4431 598.634 15.8833C598.697 15.891 598.76 15.8986 598.822 15.9063C598.92 16.4989 599.018 17.0926 599.115 17.6852L599.145 17.6655C598.924 17.5485 598.702 17.4315 598.481 17.3145C598.42 17.5682 598.305 17.824 598.314 18.0744C598.324 18.3127 598.501 18.5391 598.543 18.7807C598.677 19.5821 598.784 20.3879 598.901 21.1916L598.925 21.1675ZM598.012 18.1969C597.932 18.2515 597.851 18.3062 597.771 18.3609C597.87 18.4942 597.964 18.6309 598.072 18.7545C598.082 18.7654 598.232 18.6779 598.23 18.6725C598.165 18.5117 598.087 18.3554 598.012 18.1969Z" fill="white"/>
<path d="M600.808 24.9899C601.951 24.9899 603.095 24.9615 604.236 25.0008C604.866 25.0227 605.054 25.5978 605.485 26.2003C604.146 26.2003 602.971 26.2779 601.817 26.1576C601.411 26.115 601.057 25.5869 600.679 25.2807C600.722 25.1845 600.765 25.0872 600.808 24.9899Z" fill="white"/>
<path d="M556.778 21.2004C556.897 21.1359 557.015 21.0167 557.134 21.0167C559.635 21.0156 562.136 21.0265 564.637 21.0451C564.728 21.0462 564.818 21.1435 564.872 21.3119C562.157 21.466 559.48 21.4475 556.802 21.4431C556.793 21.3622 556.786 21.2813 556.778 21.2004Z" fill="white"/>
<path d="M599.995 17.6762C600.096 18.5694 600.234 19.4605 600.287 20.3571C600.323 20.9737 599.728 21.516 599.124 21.4887C599.053 21.4854 598.991 21.2788 598.924 21.1673L598.9 21.1946C599.294 20.93 599.437 20.5451 599.395 20.0914C599.319 19.2823 599.229 18.4743 599.144 17.6663L599.114 17.686C599.274 17.8522 599.432 18.0195 599.632 18.2283C599.706 17.9801 599.755 17.8172 599.803 17.6543L599.783 17.6794C599.859 17.6827 599.936 17.6849 600.012 17.6882L599.995 17.6762ZM600.044 18.8122C599.91 18.7181 599.821 18.6318 599.714 18.5935C599.685 18.5837 599.543 18.7477 599.56 18.7881C599.601 18.8898 599.704 18.9663 599.781 19.0527C599.85 18.9893 599.919 18.927 600.044 18.8122Z" fill="white"/>
<path d="M585.273 10.502C584.869 9.7038 584.77 8.85645 584.976 7.98285C585.011 7.83525 585.238 7.73247 585.508 7.48975C585.508 8.61263 585.508 9.54964 585.508 10.4856C585.429 10.491 585.35 10.4965 585.273 10.502Z" fill="white"/>
<path d="M574.408 19.6828C574.31 19.5986 574.116 19.4925 574.129 19.4324C574.396 18.2516 574.686 17.0773 575.035 15.915C575.273 17.215 574.594 18.3696 574.482 19.6117L574.408 19.6828Z" fill="white"/>
<path d="M551.774 21.3469C551.28 21.3469 550.786 21.3469 550.293 21.3469C550.786 20.9183 551.274 20.891 551.774 21.3469Z" fill="white"/>
<path d="M600.382 21.3248C600.718 20.8929 601.126 20.9542 601.667 21.1379C601.24 21.6211 600.802 21.3959 600.382 21.3248Z" fill="white"/>
<path d="M592.565 3.67281C592.417 3.8882 592.269 4.1036 592.121 4.3179L592.144 4.29275C591.918 4.37366 591.693 4.45566 591.467 4.53766L591.493 4.56828C591.798 4.17576 592.076 3.7745 591.935 3.23438L591.905 3.24859C592.098 3.44867 592.154 3.86087 592.587 3.69468L592.565 3.67281Z" fill="white"/>
<path d="M572.916 12.4239C572.433 12.1079 572.207 11.6705 572.284 11.0889L572.263 11.1053C572.478 11.547 572.694 11.9898 572.909 12.4315L572.916 12.4239Z" fill="white"/>
<path d="M557.377 16.586C557.732 16.6484 558.087 16.7107 558.442 16.7741C558.434 16.8375 558.428 16.8998 558.42 16.9633C558.222 16.9753 558.025 16.9873 557.827 16.9993L557.854 17.0299C557.695 16.949 557.536 16.867 557.377 16.7861L557.414 16.8277C557.413 16.738 557.413 16.6473 557.412 16.5576L557.377 16.586Z" fill="white"/>
<path d="M550.849 16.7798C550.544 17.2084 550.544 17.2084 550.001 17.0061C550.294 16.9416 550.587 16.8782 550.882 16.8137C550.882 16.8126 550.849 16.7798 550.849 16.7798Z" fill="white"/>
<path d="M597.62 15.9401C597.765 15.5738 597.911 15.2086 598.057 14.8423L598.024 14.8237C597.878 15.1889 597.733 15.553 597.588 15.9182L597.62 15.9401Z" fill="white"/>
<path d="M599.37 10.6897C599.37 10.4558 599.37 10.2218 599.37 9.98779L599.336 10.0304C599.471 10.131 599.606 10.2305 599.785 10.3639C599.606 10.4831 599.471 10.5738 599.336 10.6646L599.37 10.6897Z" fill="white"/>
<path d="M597.397 17.8916C597.32 17.6752 597.245 17.4587 597.168 17.2422L597.149 17.2477C597.222 17.4674 597.295 17.6883 597.369 17.908L597.397 17.8916Z" fill="white"/>
<path d="M597.172 17.0173C597.247 16.8063 597.322 16.5953 597.398 16.3842L597.368 16.3525C597.296 16.5723 597.223 16.7921 597.151 17.0118L597.172 17.0173Z" fill="white"/>
<path d="M600.213 17.2119C600.14 17.3672 600.068 17.5213 599.995 17.6766L600.013 17.6897C600.088 17.5421 600.164 17.3945 600.239 17.2469C600.239 17.2458 600.213 17.2119 600.213 17.2119Z" fill="white"/>
<path d="M597.397 16.3853C597.471 16.2366 597.545 16.089 597.618 15.9403L597.588 15.9185C597.515 16.0628 597.44 16.2082 597.367 16.3525L597.397 16.3853Z" fill="white"/>
<path d="M597.169 17.2424C597.17 17.1681 597.171 17.0926 597.172 17.0183L597.15 17.0117C597.15 17.0904 597.149 17.1692 597.149 17.2479L597.169 17.2424Z" fill="white"/>
<path d="M599.136 10.916C599.213 10.8406 599.292 10.7651 599.37 10.6897L599.337 10.6646C599.263 10.74 599.188 10.8154 599.113 10.892L599.136 10.916Z" fill="white"/>
<path d="M572.909 12.4315C572.982 12.5036 573.055 12.5769 573.128 12.6491L573.134 12.6436C573.061 12.5703 572.989 12.4971 572.915 12.4249C572.916 12.4238 572.909 12.4315 572.909 12.4315Z" fill="white"/>
<path d="M591.468 4.5376C591.396 4.61632 591.323 4.69395 591.251 4.77267L591.277 4.79782C591.349 4.72128 591.422 4.64475 591.494 4.56821L591.468 4.5376Z" fill="white"/>
<path d="M592.786 3.45068C592.712 3.52503 592.639 3.59829 592.566 3.67264L592.589 3.69341C592.661 3.61906 592.733 3.54581 592.805 3.47146L592.786 3.45068Z" fill="white"/>
<path d="M569.145 19.0684C568.99 19.1132 568.836 19.1569 568.681 19.2017C568.676 19.1646 568.67 19.1274 568.665 19.0913C568.817 19.0913 568.967 19.0913 569.126 19.0859C569.131 19.0804 569.145 19.0684 569.145 19.0684Z" fill="white"/>
<path d="M568.56 20.3191C568.475 20.2349 568.391 20.1507 568.305 20.0654C568.391 20.1496 568.475 20.2338 568.56 20.3191Z" fill="white"/>
<path d="M555.634 19.8413C555.721 19.9277 555.807 20.013 555.893 20.0993C555.806 20.013 555.721 19.9266 555.634 19.8413Z" fill="white"/>
<path d="M555.194 19.4062C555.28 19.4926 555.367 19.5779 555.453 19.6643C555.367 19.5779 555.28 19.4915 555.194 19.4062Z" fill="white"/>
<path d="M552.57 19.6577C552.805 19.5024 553.039 19.3472 553.274 19.1919C553.039 19.3472 552.804 19.5024 552.57 19.6577Z" fill="white"/>
<path d="M553.232 19.228C553.317 19.1416 553.402 19.0541 553.488 18.9678C553.402 19.0541 553.317 19.1405 553.232 19.228Z" fill="white"/>
<path d="M552.353 19.8817C552.438 19.7953 552.524 19.7089 552.609 19.6226C552.524 19.7089 552.439 19.7953 552.353 19.8817Z" fill="white"/>
<path d="M566.348 20.1025C566.429 19.9429 566.509 19.7822 566.59 19.6226C566.509 19.7822 566.429 19.9418 566.348 20.1025Z" fill="white"/>
<path d="M553.052 18.54C552.672 18.6209 552.291 18.7008 551.911 18.7817C552.291 18.7008 552.672 18.6199 553.052 18.54Z" fill="white"/>
<path d="M568.342 17.0029C568.258 17.086 568.174 17.168 568.09 17.2511C568.174 17.168 568.258 17.0849 568.342 17.0029Z" fill="white"/>
<path d="M599.805 17.6543C599.785 17.6598 599.766 17.6652 599.747 17.6707C599.759 17.674 599.772 17.6773 599.784 17.6805C599.784 17.6794 599.805 17.6543 599.805 17.6543Z" fill="white"/>
<path d="M599.607 8.92822C599.599 8.95118 599.593 8.97305 599.585 8.99601C599.608 8.98398 599.631 8.97086 599.654 8.95884C599.629 8.95009 599.605 8.94244 599.582 8.93369C599.583 8.9326 599.607 8.92822 599.607 8.92822Z" fill="white"/>
</g>
<g opacity="0.5" clip-path="url(#clip4_2001_418)">
<path d="M761.905 6.79806C761.213 6.7461 760.71 6.70741 759.981 6.65213C760.199 6.36027 760.307 6.07062 760.436 6.06178C764.463 5.78208 768.209 6.36027 770.962 9.71112C773.69 13.0321 773.521 17.6643 770.569 20.8062C768.569 22.9354 766.059 23.9956 763.158 24.02C757.837 24.0642 752.515 24.0509 747.193 24.0255C745.033 24.0155 743.047 23.3788 741.275 22.1262C736.123 18.4835 736.183 11.4181 741.392 7.85494C743.085 6.69635 744.972 6.09715 747.008 6.03967C749.039 5.98218 751.073 6.01866 753.105 6.0264C753.444 6.02751 753.907 5.907 753.845 6.64439C753.259 6.69082 752.657 6.73947 751.914 6.79916C753.398 10.9117 754.851 14.9358 756.304 18.9589C756.381 18.9655 756.46 18.9721 756.538 18.9777C758.305 14.9679 760.072 10.9571 761.905 6.79806ZM754.602 23.3688C753.831 21.2794 753.116 19.3491 752.404 17.4178C751.195 14.1377 749.99 10.8576 748.775 7.57967C748.452 6.70741 748.434 6.70851 747.488 6.73173C745.203 6.787 743.13 7.45364 741.324 8.87092C737.13 12.1621 737.102 17.9208 741.265 21.2484C742.992 22.6292 744.988 23.3622 747.189 23.4263C749.441 23.4915 751.696 23.4462 753.951 23.444C754.125 23.444 754.299 23.4042 754.602 23.3688ZM755.275 23.3987C755.741 23.4208 756.034 23.4451 756.326 23.4462C758.396 23.4495 760.467 23.4993 762.534 23.4263C763.63 23.3876 764.749 23.2417 765.804 22.9509C767.74 22.4181 769.346 21.3158 770.579 19.7162C772.682 16.9866 772.743 13.3174 770.664 10.579C768.623 7.89032 765.831 6.74831 762.476 6.74057C760.063 12.3235 757.688 17.8157 755.275 23.3987Z" fill="white"/>
<path d="M793.201 43.5019C793.185 41.1957 793.82 39.3418 795.468 37.9013C797.414 36.1988 799.871 36.2131 801.783 37.9499C802.736 38.8166 803.428 39.858 803.705 41.115C804.335 43.9673 804.071 46.604 801.764 48.7354C799.91 50.4479 797.111 50.4324 795.276 48.6072C793.796 47.1346 793.134 45.3824 793.201 43.5019ZM795.081 43.3018C795.127 43.3051 795.174 43.3073 795.22 43.3106C795.22 43.9352 795.176 44.5632 795.229 45.1823C795.346 46.5155 795.641 47.7946 796.592 48.8283C797.799 50.1395 799.493 50.1317 800.603 48.7332C801.028 48.1982 801.411 47.5603 801.58 46.9091C802.192 44.561 802.204 42.1763 801.603 39.8249C801.426 39.1361 801.045 38.4551 800.609 37.8847C799.567 36.5205 797.728 36.5072 796.582 37.7929C795.983 38.4651 795.559 39.239 795.437 40.1366C795.291 41.1869 795.197 42.2449 795.081 43.3018Z" fill="white"/>
<path d="M762.299 37.0578C762.168 37.0821 762.037 37.112 761.905 37.1308C761.062 37.2502 760.977 37.3066 760.941 38.1512C760.886 39.4015 760.856 40.6541 760.855 41.9045C760.853 44.2239 760.882 46.5433 760.89 48.8626C760.891 49.2109 760.849 49.5591 760.708 49.9483C759.185 48.0446 757.93 45.9938 756.594 44.0005C755.265 42.0161 753.962 40.0151 752.464 38.0495C752.437 38.3513 752.39 38.6531 752.389 38.9549C752.376 41.9 752.37 44.8463 752.364 47.7914C752.362 49.4453 752.364 49.4453 753.898 49.7791C753.571 49.7913 753.245 49.809 752.918 49.8156C752.548 49.8233 752.179 49.83 751.809 49.8245C751.444 49.8178 751.081 49.7946 750.698 49.6476C750.843 49.6133 750.99 49.5459 751.133 49.5503C751.812 49.5724 752.031 49.1589 752.091 48.5841C752.11 48.4016 752.125 48.217 752.126 48.0335C752.141 44.6462 752.154 41.2588 752.163 37.8715C752.164 37.657 752.119 37.4425 752.091 37.1916C751.588 37.1573 751.124 37.1253 750.52 37.0833C750.992 36.6709 751.435 36.8478 751.819 36.8478C752.587 36.8478 753.471 36.7007 754.089 37.0258C754.669 37.3298 754.982 38.1567 755.391 38.7681C756.883 41.0057 758.365 43.2499 759.855 45.4886C760.027 45.7473 760.229 45.9872 760.597 46.1817C760.597 45.7915 760.597 45.4012 760.597 45.011C760.6 42.8386 760.608 40.6663 760.607 38.4939C760.606 37.2834 760.598 37.2845 759.358 37.112C759.301 37.1043 759.253 37.0258 759.121 36.9108C760.231 36.9108 761.258 36.9108 762.286 36.9108C762.29 36.9594 762.294 37.0081 762.299 37.0578Z" fill="white"/>
<path d="M790.336 46.1928C790.336 45.4675 790.336 44.7423 790.336 44.0171C790.335 42.2482 790.336 40.4805 790.333 38.7116C790.33 37.2524 790.327 37.2524 788.979 37.0523C789.689 36.7891 790.445 36.7648 791.992 36.955C791.962 37.0069 791.932 37.102 791.906 37.0998C790.602 37.039 790.604 37.6161 790.597 38.5215C790.568 41.911 790.582 45.3006 790.58 48.6901C790.58 49.0848 790.58 49.4806 790.58 49.8775C790.02 49.9737 789.973 49.5447 789.813 49.3037C787.529 45.8644 785.258 42.4152 782.982 38.9714C782.768 38.6475 782.535 38.3358 782.164 37.8117C782.13 38.3866 782.098 38.6995 782.095 39.0123C782.081 42.0338 782.071 45.0552 782.06 48.0766C782.06 48.2236 782.054 48.3717 782.063 48.5188C782.114 49.3756 782.229 49.4839 783.136 49.5469C783.28 49.5569 783.423 49.569 783.566 49.5911C783.592 49.5945 783.611 49.6475 783.688 49.7537C782.554 49.7537 781.473 49.7537 780.394 49.7537C780.387 49.7183 780.381 49.6829 780.375 49.6475C780.498 49.6155 780.62 49.5712 780.745 49.5536C781.603 49.4275 781.73 49.3092 781.838 48.4723C781.866 48.2546 781.866 48.0312 781.867 47.8101C781.879 44.6417 781.891 41.4733 781.897 38.3037C781.898 37.9433 781.859 37.584 781.838 37.2092C781.297 37.1573 780.836 37.1142 780.376 37.0699C780.379 37.0047 780.383 36.9395 780.385 36.8743C781.441 36.8743 782.501 36.8245 783.551 36.9074C783.824 36.9284 784.118 37.3264 784.311 37.6128C785.895 39.9686 787.457 42.3389 789.028 44.7036C789.373 45.2232 789.728 45.7351 790.078 46.2502C790.166 46.2303 790.252 46.2115 790.336 46.1928Z" fill="white"/>
<path d="M766.187 49.6351C766.572 49.5953 766.957 49.5544 767.497 49.498C767.54 45.4518 767.557 41.3901 767.538 37.2698C766.488 37.0276 765.528 37.1791 764.592 37.5417C764.013 37.7661 763.786 38.268 763.685 38.8363C763.598 39.3349 763.527 39.8368 763.324 40.3254C763.324 39.2254 763.324 38.1243 763.324 37.0254C764.075 36.7645 772.008 36.6827 773.627 36.9315C773.627 38.0735 773.627 39.2299 773.627 40.3873C773.599 40.3984 773.57 40.4083 773.541 40.4194C773.463 39.9617 773.356 39.5062 773.315 39.0463C773.229 38.1022 772.708 37.5627 771.804 37.4013C771.056 37.2675 770.297 37.1968 769.425 37.0829C769.425 41.3105 769.425 45.3755 769.425 49.4792C769.86 49.5234 770.288 49.5676 770.716 49.6119C770.714 49.6583 770.711 49.7058 770.709 49.7523C769.206 49.7523 767.701 49.7523 766.198 49.7523C766.194 49.7125 766.19 49.6738 766.187 49.6351Z" fill="white"/>
<path d="M739.401 36.9316C742.342 36.9316 745.282 36.9316 748.322 36.9316C748.403 37.8957 748.481 38.8343 748.56 39.7728C748.526 39.7839 748.49 39.7961 748.456 39.8071C748.367 39.5882 748.254 39.376 748.194 39.1493C747.903 38.0449 747.148 37.4512 746.053 37.3772C744.952 37.3031 743.843 37.3606 742.574 37.3606C742.502 39.2267 742.511 41.1172 742.513 42.9955C744.473 43.3349 745.408 43.2984 745.934 41.1625C745.934 42.6074 745.934 44.0534 745.934 45.4984C745.895 45.5072 745.858 45.5161 745.819 45.5249C745.771 45.3502 745.706 45.1789 745.677 45.0009C745.509 43.9517 745.252 43.6433 744.227 43.5018C743.694 43.4288 743.144 43.4885 742.554 43.4885C742.554 45.5382 742.554 47.4795 742.554 49.4739C742.871 49.5446 743.145 49.6065 743.418 49.6673C743.418 49.6927 743.418 49.7403 743.418 49.7668C742.176 49.7668 740.932 49.7668 739.689 49.7668C739.684 49.7337 739.678 49.6784 739.673 49.6452C739.987 49.5966 740.301 49.5468 740.696 49.4849C740.696 45.4564 740.696 41.4289 740.696 37.3352C740.26 37.25 739.822 37.1638 739.382 37.0776C739.388 37.0311 739.394 36.9814 739.401 36.9316Z" fill="white"/>
<path d="M729.647 37.2435C729.101 37.1938 728.61 37.1496 728.008 37.0954C728.893 36.714 732.177 36.7074 733.132 37.0976C732.533 37.1451 732.078 37.1816 731.632 37.2159C731.374 37.9942 731.28 47.6366 731.526 49.5613C732.963 49.5182 734.423 49.705 735.876 49.401C736.934 49.1799 737.517 48.4746 737.733 47.4465C737.827 46.9932 737.897 46.5344 738.053 46.101C738.053 47.2917 738.053 48.4823 738.053 49.7493C734.786 49.7493 731.594 49.7493 728.402 49.7493C728.397 49.715 728.393 49.6807 728.388 49.6465C728.788 49.6022 729.187 49.5591 729.647 49.5083C729.647 45.4178 729.647 41.355 729.647 37.2435Z" fill="white"/>
<path d="M721.858 36.7568C723.203 40.9855 724.548 45.2141 725.901 49.4704C726.287 49.5257 726.631 49.5743 726.975 49.623C726.972 49.6683 726.967 49.7136 726.964 49.7589C725.544 49.7589 724.123 49.7589 722.703 49.7589C722.696 49.7169 722.689 49.676 722.683 49.634C723.081 49.5821 723.479 49.5301 723.961 49.4671C723.554 48.1979 723.164 46.9841 722.748 45.6884C721.545 45.6884 720.377 45.6884 719.143 45.6884C718.727 46.8846 718.257 48.0664 718.195 49.4306C718.671 49.5025 719.054 49.56 719.438 49.6174C719.436 49.6572 719.435 49.697 719.432 49.7368C718.482 49.7368 717.531 49.7368 716.58 49.7368C717.425 49.6407 717.677 49.0105 717.896 48.3207C719.028 44.7432 720.172 41.1679 721.315 37.5926C721.404 37.3151 721.51 37.0443 721.608 36.7701C721.691 36.7668 721.774 36.7613 721.858 36.7568ZM722.672 45.3324C722.104 43.4928 721.586 41.8179 721.069 40.1442C720.321 41.8588 719.752 43.5381 719.31 45.3324C720.477 45.3324 721.5 45.3324 722.672 45.3324Z" fill="white"/>
<path d="M713.358 44.9137C712.833 46.5897 712.307 48.2668 711.78 49.9427C711.691 49.9461 711.603 49.9494 711.515 49.9527C710.115 45.7064 708.716 41.4611 707.308 37.1883C706.891 37.1474 706.509 37.1098 705.999 37.06C706.965 36.7339 709.827 36.7262 710.912 37.0523C710.337 37.1042 709.923 37.1418 709.361 37.1927C710.347 40.4142 711.314 43.5815 712.282 46.7489C712.358 46.7577 712.433 46.7677 712.51 46.7765C712.641 46.4161 712.751 46.0446 712.91 45.6975C713.035 45.4278 713.222 45.1879 713.382 44.9336L713.358 44.9137Z" fill="white"/>
<path d="M776.126 37.24C775.631 37.1836 775.252 37.1394 774.746 37.0819C775.676 36.7226 778.468 36.7171 779.494 37.0797C778.923 37.1416 778.508 37.1869 778.012 37.24C778.012 41.3105 778.012 45.3767 778.012 49.4704C778.423 49.5202 778.807 49.5655 779.191 49.6119C779.188 49.6639 779.183 49.7159 779.18 49.7678C777.731 49.7678 776.282 49.7678 774.833 49.7678C774.83 49.7181 774.827 49.6694 774.823 49.6197C775.239 49.5699 775.655 49.5202 776.126 49.4649C776.126 45.3921 776.126 41.357 776.126 37.24Z" fill="white"/>
<path d="M713.381 44.9333C713.454 44.511 713.477 44.0721 713.608 43.6675C714.115 42.0988 714.663 40.5422 715.183 38.9779C715.678 37.492 715.601 37.3616 714.125 37.0675C714.705 36.7436 716.322 36.6916 717.677 36.9934C717.437 37.0719 717.33 37.1316 717.22 37.1372C716.494 37.177 716.123 37.586 715.888 38.2482C715.225 40.1132 714.521 41.9639 713.826 43.8168C713.686 44.1882 713.513 44.5475 713.356 44.9123C713.359 44.9134 713.381 44.9333 713.381 44.9333Z" fill="white"/>
<path d="M749.178 49.77C747.699 49.77 744.526 49.77 743.175 49.77C743.173 49.7346 743.17 49.7003 743.167 49.665C743.77 49.5798 746.203 49.54 746.793 49.4019C748.233 49.0658 748.677 48.5373 748.85 47.0769C748.875 46.8625 748.921 46.6513 748.963 46.439C748.967 46.418 749.014 46.4059 749.141 46.3296C749.312 47.4705 749.213 48.5605 749.178 49.77Z" fill="white"/>
</g>
<defs>
<clipPath id="clip0_2001_418">
<rect width="99" height="40" fill="white" transform="translate(0 7)"/>
</clipPath>
<clipPath id="clip1_2001_418">
<rect width="82" height="54" fill="white" transform="translate(182 2)"/>
</clipPath>
<clipPath id="clip2_2001_418">
<rect width="101" height="40" fill="white" transform="translate(347 7)"/>
</clipPath>
<clipPath id="clip3_2001_418">
<rect width="92" height="54" fill="white" transform="translate(531)"/>
</clipPath>
<clipPath id="clip4_2001_418">
<rect width="98" height="44" fill="white" transform="translate(706 6)"/>
</clipPath>
</defs>
</svg>
