<svg width="40" height="40" viewBox="0 0 40 40" fill="none" xmlns="http://www.w3.org/2000/svg">
<mask id="mask0_2001_200" style="mask-type:alpha" maskUnits="userSpaceOnUse" x="0" y="0" width="40" height="40">
<rect width="40" height="40" fill="#D9D9D9"/>
</mask>
<g mask="url(#mask0_2001_200)">
<path d="M19.1666 28.3334C21.25 28.3334 23.0208 27.6042 24.4791 26.1459C25.9375 24.6876 26.6666 22.9167 26.6666 20.8334V13.3334H19.1666C17.0833 13.3334 15.3125 14.0626 13.8541 15.5209C12.3958 16.9792 11.6666 18.7501 11.6666 20.8334C11.6666 21.5556 11.7638 22.2501 11.9583 22.9167C12.1527 23.5834 12.4444 24.2223 12.8333 24.8334L12.1666 25.5001C11.8611 25.8056 11.7083 26.1945 11.7083 26.6667C11.7083 27.139 11.8611 27.5279 12.1666 27.8334C12.4722 28.139 12.8611 28.2917 13.3333 28.2917C13.8055 28.2917 14.1944 28.139 14.5 27.8334L15.1666 27.1667C15.7777 27.5556 16.4166 27.8473 17.0833 28.0417C17.75 28.2362 18.4444 28.3334 19.1666 28.3334ZM19.1666 25.0001C18.9166 25.0001 18.6666 24.9723 18.4166 24.9167C18.1666 24.8612 17.9166 24.7917 17.6666 24.7084L21.1666 21.1667C21.4722 20.8612 21.625 20.4723 21.625 20.0001C21.625 19.5279 21.4722 19.139 21.1666 18.8334C20.8611 18.5279 20.4722 18.3751 20 18.3751C19.5277 18.3751 19.1388 18.5279 18.8333 18.8334L15.2916 22.3334C15.2083 22.0834 15.1388 21.8334 15.0833 21.5834C15.0277 21.3334 15 21.0834 15 20.8334C15 19.6667 15.4027 18.6806 16.2083 17.8751C17.0138 17.0695 18 16.6667 19.1666 16.6667H23.3333V20.8334C23.3333 22.0001 22.9305 22.9862 22.125 23.7917C21.3194 24.5973 20.3333 25.0001 19.1666 25.0001ZM20 38.3334L14.25 33.8334L7.04163 32.9584L6.16663 25.7501L1.66663 20.0001L6.16663 14.2501L7.04163 7.04175L14.25 6.16675L20 1.66675L25.75 6.16675L32.9583 7.04175L33.8333 14.2501L38.3333 20.0001L33.8333 25.7501L32.9583 32.9584L25.75 33.8334L20 38.3334ZM20 34.0834L24.4166 30.6667L30 29.9584L30.6666 24.4167L34.0833 20.0001L30.6666 15.5834L29.9583 10.0417L24.4166 9.33342L20 5.91675L15.5833 9.33342L9.99996 10.0417L9.33329 15.5834L5.91663 20.0001L9.33329 24.4167L10.0416 30.0001L15.5833 30.6667L20 34.0834Z" fill="#F4C117"/>
</g>
</svg>
