<svg width="22" height="18" viewBox="0 0 22 18" fill="none" xmlns="http://www.w3.org/2000/svg">
<path d="M3.125 9L0.125 3.8L6.725 0H8C8.26667 0.8 8.58333 1.5 8.95 2.1C9.31666 2.7 10 3 11 3C12 3 12.6833 2.7 13.05 2.1C13.4167 1.5 13.7333 0.8 14 0H15.275L21.85 3.825L18.875 9L17 7.975V12.775L15.425 14.15C15.375 14.1833 15.3083 14.225 15.225 14.275C15.1417 14.325 15.0667 14.3667 15 14.4V4.575L18.125 6.3L19.125 4.55L15.3 2.325C14.9 3.14167 14.3125 3.79167 13.5375 4.275C12.7625 4.75833 11.9167 5 11 5C10.0833 5 9.2375 4.75833 8.4625 4.275C7.6875 3.79167 7.1 3.14167 6.7 2.325L2.85 4.55L3.875 6.3L7 4.575V10.5C6.65 10.5333 6.30833 10.5875 5.975 10.6625C5.64167 10.7375 5.31667 10.8417 5 10.975V7.975L3.125 9ZM3.65 16.375L2.35 14.85L4.525 13C4.90833 12.6667 5.34583 12.4125 5.8375 12.2375C6.32917 12.0625 6.84167 11.975 7.375 11.975C7.90833 11.975 8.41667 12.0625 8.9 12.2375C9.38333 12.4125 9.81666 12.6667 10.2 13L13.1 15.475C13.3 15.6417 13.5375 15.7708 13.8125 15.8625C14.0875 15.9542 14.3667 16 14.65 16C14.95 16 15.2292 15.9583 15.4875 15.875C15.7458 15.7917 15.975 15.6583 16.175 15.475L18.35 13.6L19.65 15.15L17.475 17C17.0917 17.3333 16.6583 17.5833 16.175 17.75C15.6917 17.9167 15.1833 18 14.65 18C14.1167 18 13.6042 17.9167 13.1125 17.75C12.6208 17.5833 12.1833 17.3333 11.8 17L8.9 14.525C8.7 14.3583 8.47083 14.2292 8.2125 14.1375C7.95417 14.0458 7.675 14 7.375 14C7.09167 14 6.8125 14.0458 6.5375 14.1375C6.2625 14.2292 6.025 14.3583 5.825 14.525L3.65 16.375Z" fill="#DB7C26"/>
</svg>
