<svg width="16" height="16" viewBox="0 0 16 16" fill="none" xmlns="http://www.w3.org/2000/svg">
<mask id="mask0_2001_33" style="mask-type:alpha" maskUnits="userSpaceOnUse" x="0" y="0" width="16" height="16">
<rect width="16" height="16" fill="#D9D9D9"/>
</mask>
<g mask="url(#mask0_2001_33)">
<path d="M8.00005 8.04299C8.36672 8.04299 8.68061 7.91218 8.94172 7.65056C9.20283 7.38894 9.33338 7.07444 9.33338 6.70705C9.33338 6.33967 9.20283 6.02517 8.94172 5.76355C8.68061 5.50192 8.36672 5.37111 8.00005 5.37111C7.63338 5.37111 7.3195 5.50192 7.05838 5.76355C6.79727 6.02517 6.66672 6.33967 6.66672 6.70705C6.66672 7.07444 6.79727 7.38894 7.05838 7.65056C7.3195 7.91218 7.63338 8.04299 8.00005 8.04299ZM8.00005 12.9526C9.35561 11.7057 10.3612 10.5729 11.0167 9.55427C11.6723 8.53562 12.0001 7.63108 12.0001 6.84065C12.0001 5.62717 11.6139 4.63356 10.8417 3.85983C10.0695 3.0861 9.12227 2.69924 8.00005 2.69924C6.87783 2.69924 5.93061 3.0861 5.15838 3.85983C4.38616 4.63356 4.00005 5.62717 4.00005 6.84065C4.00005 7.63108 4.32783 8.53562 4.98338 9.55427C5.63894 10.5729 6.6445 11.7057 8.00005 12.9526ZM8.00005 14.7227C6.21116 13.1975 4.87505 11.7808 3.99172 10.4727C3.10838 9.16462 2.66672 7.95393 2.66672 6.84065C2.66672 5.17072 3.20283 3.84035 4.27505 2.84953C5.34727 1.85871 6.58894 1.3633 8.00005 1.3633C9.41116 1.3633 10.6528 1.85871 11.7251 2.84953C12.7973 3.84035 13.3334 5.17072 13.3334 6.84065C13.3334 7.95393 12.8917 9.16462 12.0084 10.4727C11.1251 11.7808 9.78894 13.1975 8.00005 14.7227Z" fill="white"/>
</g>
</svg>
