<svg width="14" height="12" viewBox="0 0 14 12" fill="none" xmlns="http://www.w3.org/2000/svg">
<path d="M1.66668 11.3867C1.30001 11.3867 0.986121 11.2559 0.72501 10.9943C0.463899 10.7327 0.333344 10.4182 0.333344 10.0508V2.03517C0.333344 1.66779 0.463899 1.35329 0.72501 1.09166C0.986121 0.830043 1.30001 0.699232 1.66668 0.699232H12.3333C12.7 0.699232 13.0139 0.830043 13.275 1.09166C13.5361 1.35329 13.6667 1.66779 13.6667 2.03517V10.0508C13.6667 10.4182 13.5361 10.7327 13.275 10.9943C13.0139 11.2559 12.7 11.3867 12.3333 11.3867H1.66668ZM7.00001 6.71096L1.66668 3.37111V10.0508H12.3333V3.37111L7.00001 6.71096ZM7.00001 5.37502L12.3333 2.03517H1.66668L7.00001 5.37502ZM1.66668 3.37111V2.03517V10.0508V3.37111Z" fill="white"/>
</svg>
