<svg width="180" height="38" viewBox="0 0 180 38" fill="none" xmlns="http://www.w3.org/2000/svg">
<path d="M167.96 31.3655H161.879V28.3711H161.796C160.399 30.707 158.332 31.8728 155.593 31.8728C153.573 31.8728 151.982 31.2988 150.822 30.1508C149.662 29.0029 149.083 27.4724 149.083 25.5591C149.083 21.5146 151.476 19.1786 156.262 18.5535L161.916 17.7994C161.916 15.519 160.683 14.3778 158.215 14.3778C155.733 14.3778 153.373 15.1185 151.138 16.5979V11.7525C152.309 11.1963 153.542 10.7871 154.811 10.5313C156.199 10.1976 157.624 10.0196 159.052 10.0018C164.992 10.0018 167.96 12.9673 167.96 18.9006V31.3655ZM161.919 22.8938V21.4879L158.135 21.9772C156.046 22.2486 155.002 23.192 155.002 24.8072C154.982 25.4902 155.259 26.1486 155.766 26.6069C156.275 27.0763 156.964 27.31 157.83 27.31C158.95 27.3478 160.028 26.8895 160.779 26.0597C161.539 25.2254 161.919 24.1686 161.919 22.8938ZM176.297 7.2142C175.317 7.25202 174.361 6.90484 173.633 6.24632C172.959 5.64343 172.582 4.7782 172.595 3.87497C172.568 2.97174 172.948 2.10408 173.633 1.51231C174.324 0.900514 175.212 0.595703 176.297 0.595703C177.394 0.595703 178.287 0.900514 178.972 1.51231C179.65 2.1063 180.027 2.97396 179.998 3.87497C180.025 4.78932 179.65 5.66804 178.972 6.27761C178.287 6.90053 177.396 7.2142 176.297 7.2142ZM179.472 31.3655H173.044V10.5135H179.472V31.3655Z" fill="#EAB308"/>
<path d="M22.4481 30.1525C21.2882 29.0045 20.7083 27.4739 20.7083 25.5607C20.7083 21.5139 23.1013 19.1802 27.8874 18.5551L33.5421 17.8009C33.5421 16.6974 33.2533 15.8632 32.6778 15.2936C32.4001 15.0445 32.0646 14.8687 31.7046 14.7775C30.1648 14.3615 28.4162 15.0311 25.6921 16.1591C23.2435 17.1735 20.2995 18.3971 16.6911 18.7353V31.3627H10.2831V18.3348C3.41731 16.7686 0.164409 11.9655 0.00665283 11.7274L5.13485 8.3281C5.2104 8.43711 6.83907 10.7286 10.2831 11.9366V7.92542C10.2831 5.54944 11.0563 3.63619 12.6027 2.18346C14.1492 0.730729 16.2489 0.00325043 18.9063 0.00325043C20.0062 -0.023446 21.1016 0.114486 22.1615 0.410371V5.42041C21.406 5.10895 20.5994 4.94432 19.7818 4.93097C17.7221 4.93097 16.6911 6.05 16.6911 8.29028V12.535C19.1374 12.2102 21.266 11.327 23.3435 10.4683C26.4542 9.18238 29.6693 7.84756 33.3066 8.83311C39.6702 10.5506 39.5969 15.8342 39.5658 18.0901V18.099C39.5791 18.3593 39.5836 18.6285 39.5858 18.9021V31.3649H33.5044V28.3705H33.4222C32.0246 30.7064 29.9582 31.8721 27.2186 31.8721C25.1966 31.8744 23.6079 31.3004 22.4481 30.1525ZM29.7604 21.9767C27.6718 22.2481 26.6275 23.1913 26.6275 24.8065C26.6075 25.4895 26.8853 26.148 27.3896 26.6085C27.8985 27.0779 28.5873 27.3115 29.4538 27.3115C30.5737 27.3493 31.6513 26.891 32.4023 26.059C33.1622 25.2247 33.5421 24.168 33.5421 22.891V21.4872L29.7604 21.9767ZM97.9691 28.9622C95.9893 27.0201 95.0006 24.5173 95.0006 21.4472C95.0006 17.9032 96.0626 15.1112 98.1846 13.0667C100.307 11.0244 103.144 10.0011 106.697 10.0011C109.152 10.0011 110.927 10.3259 112.025 10.9777V16.4349C110.734 15.4472 109.154 14.9177 107.53 14.9288C105.686 14.9288 104.226 15.4694 103.146 16.5484C102.066 17.6274 101.529 19.1179 101.529 21.0178C101.529 22.8643 102.044 24.3126 103.075 25.3649C104.106 26.4172 105.524 26.9422 107.328 26.9422C108.928 26.9422 110.494 26.4394 112.025 25.4361V30.6085C110.574 31.4495 108.479 31.8721 105.741 31.8721C102.54 31.8744 99.9488 30.9022 97.9691 28.9622ZM48.3424 28.9422H48.2602V31.3649H41.8321V0.492685H48.2602V13.6474H48.3424C49.9288 11.218 52.1863 10.0033 55.1148 10.0033C57.7989 10.0033 59.8675 10.9266 61.3184 12.7731C62.7693 14.6196 63.4959 17.1446 63.4959 20.3482C63.4959 23.8232 62.6493 26.6129 60.954 28.7175C59.2587 30.8221 56.9946 31.8744 54.1616 31.8744C51.5975 31.8744 49.6578 30.8955 48.3424 28.9422ZM49.4311 16.3771C48.5846 17.3404 48.1602 18.5973 48.1602 20.1435V22.2814C48.1602 23.6252 48.5468 24.7375 49.32 25.6207C50.0599 26.4884 51.1509 26.9733 52.2885 26.9422C53.7528 26.9422 54.8882 26.3749 55.6947 25.2425C56.5013 24.1079 56.9057 22.5039 56.9057 20.426C56.9057 18.7019 56.5368 17.3537 55.7969 16.3838C55.057 15.4138 54.0038 14.9288 52.6351 14.9288C51.4042 14.9065 50.2266 15.436 49.4311 16.3771ZM84.4042 31.3649V10.5128H90.83V31.3649H84.4042ZM67.6665 31.3649V10.5128H74.0923V14.3815H74.1745C75.1921 11.5584 77.0208 10.1457 79.6648 10.1457C80.2048 10.1234 80.7425 10.2057 81.2513 10.3904V16.317C80.4181 15.881 79.4871 15.6652 78.5472 15.6852C77.1496 15.6852 76.0587 16.1969 75.2721 17.2225C74.4855 18.2481 74.0923 19.6429 74.0923 21.4071V31.3649H67.6665ZM84.993 6.24577C84.3198 5.64288 83.942 4.77747 83.9554 3.87424C83.9287 2.97101 84.3087 2.10337 84.993 1.5116C85.684 0.899806 86.5728 0.595022 87.6571 0.595022C88.7547 0.595022 89.6479 0.899806 90.3323 1.5116C91.01 2.1056 91.3877 2.97323 91.3588 3.87424C91.3855 4.78637 91.01 5.66735 90.3323 6.27692C89.6479 6.90206 88.757 7.21352 87.6571 7.21352C86.6772 7.25134 85.7218 6.90428 84.993 6.24577Z" fill="white"/>
<path d="M116.466 32.7348L114.715 30.9573L114.722 30.9484C115.129 30.4656 118.819 26.0941 123.374 21.1864C123.941 21.7893 125.25 23.1619 125.981 23.925C120.959 28.766 116.511 32.697 116.466 32.7348ZM129.662 20.3076L126.807 17.5668C127.109 17.2554 127.4 16.9595 127.674 16.6814C134.259 9.99169 141.287 3.95606 141.356 3.896L143.107 5.67354L143.103 5.68021C142.852 5.97387 136.888 12.9706 130.453 19.5045C130.196 19.7693 129.929 20.0385 129.662 20.3076Z" fill="#EAB308"/>
<path d="M121.408 37.6828L119.657 35.9053L119.662 35.9008C119.924 35.5894 126.176 28.17 132.615 21.6293L132.893 21.3468L135.722 24.121L135.604 24.2411L135.395 24.4547C128.827 31.1288 121.481 37.6183 121.408 37.6828ZM139.557 20.1121L136.899 17.4113C141.919 12.6059 146.256 8.88401 146.298 8.84619L148.049 10.6237L148.042 10.6326C147.651 11.0931 144.076 15.2756 139.557 20.1121Z" fill="#EAB308"/>
<path d="M146.229 32.7351C146.156 32.6705 138.815 26.1833 132.24 19.5047C132.067 19.329 131.891 19.1488 131.715 18.9708L134.466 16.1187C134.675 16.3301 134.857 16.5147 135.022 16.6816C141.601 23.3646 147.918 30.8841 147.98 30.9575L146.229 32.7351ZM128.265 15.3601C123.43 10.1966 119.626 5.72047 119.588 5.67598L121.339 3.89844L121.346 3.90511C121.815 4.30778 126.063 7.97855 130.927 12.646L128.265 15.3601Z" fill="white"/>
<path d="M141.287 37.6828C141.243 37.6428 136.804 33.7206 131.784 28.8841L134.511 26.2768C139.226 31.3647 143.001 35.8608 143.038 35.9053L141.287 37.6828ZM128.2 25.3646C127.896 25.0576 127.592 24.7528 127.298 24.4547C120.717 17.7673 114.707 10.6949 114.647 10.6237L116.397 8.84619L116.402 8.85064C116.695 9.10203 123.639 15.0887 130.08 21.6316C130.336 21.8919 130.598 22.1588 130.858 22.4258L128.2 25.3646Z" fill="white"/>
</svg>
