<svg width="24" height="24" viewBox="0 0 24 24" fill="none" xmlns="http://www.w3.org/2000/svg">
<mask id="mask0_2001_59" style="mask-type:alpha" maskUnits="userSpaceOnUse" x="0" y="0" width="24" height="24">
<rect width="24" height="24" fill="#D9D9D9"/>
</mask>
<g mask="url(#mask0_2001_59)">
<path d="M19.6 21.1915L13.3 14.8792C12.8 15.28 12.225 15.5972 11.575 15.831C10.925 16.0648 10.2333 16.1817 9.5 16.1817C7.68333 16.1817 6.14583 15.5513 4.8875 14.2905C3.62917 13.0297 3 11.4892 3 9.66901C3 7.84879 3.62917 6.30829 4.8875 5.0475C6.14583 3.78671 7.68333 3.15631 9.5 3.15631C11.3167 3.15631 12.8542 3.78671 14.1125 5.0475C15.3708 6.30829 16 7.84879 16 9.66901C16 10.4038 15.8833 11.0968 15.65 11.7481C15.4167 12.3993 15.1 12.9755 14.7 13.4764L21 19.7887L19.6 21.1915ZM9.5 14.1778C10.75 14.1778 11.8125 13.7394 12.6875 12.8627C13.5625 11.986 14 10.9215 14 9.66901C14 8.41657 13.5625 7.35199 12.6875 6.47528C11.8125 5.59857 10.75 5.16022 9.5 5.16022C8.25 5.16022 7.1875 5.59857 6.3125 6.47528C5.4375 7.35199 5 8.41657 5 9.66901C5 10.9215 5.4375 11.986 6.3125 12.8627C7.1875 13.7394 8.25 14.1778 9.5 14.1778Z" fill="white"/>
</g>
</svg>
