<svg width="7" height="8" viewBox="0 0 7 8" fill="none" xmlns="http://www.w3.org/2000/svg">
<path d="M3.16337 0.611409C3.23084 0.444863 3.46664 0.444863 3.53411 0.611409L4.31575 2.54097C4.3427 2.60749 4.40323 2.65448 4.47436 2.66408L6.36775 2.9197C6.52943 2.94153 6.59836 3.13733 6.48601 3.25563L5.05321 4.76437C5.00961 4.81027 4.99032 4.87411 5.00121 4.93647L5.37616 7.08518C5.40605 7.25644 5.21825 7.38166 5.07164 7.28821L3.45624 6.2586C3.39066 6.2168 3.30681 6.2168 3.24124 6.2586L1.62584 7.28821C1.47923 7.38166 1.29143 7.25644 1.32132 7.08518L1.69627 4.93647C1.70715 4.87411 1.68787 4.81027 1.64427 4.76437L0.211465 3.25563C0.0991186 3.13733 0.168051 2.94153 0.32973 2.9197L2.22312 2.66408C2.29425 2.65448 2.35478 2.60749 2.38173 2.54097L3.16337 0.611409Z" fill="#F4C117"/>
</svg>
